<svg width="143" height="75" viewBox="0 0 143 75" fill="none" xmlns="http://www.w3.org/2000/svg">
<path d="M103.92 62.26C101.64 62.26 99.44 61.82 97.32 60.94C95.24 60.02 93.46 58.78 91.98 57.22C90.5 55.62 89.52 53.84 89.04 51.88L92.04 50.62C92.68 53.06 94.1 55.06 96.3 56.62C98.54 58.18 101.08 58.96 103.92 58.96C105.84 58.96 107.58 58.54 109.14 57.7C110.7 56.86 111.92 55.72 112.8 54.28C113.72 52.8 114.18 51.18 114.18 49.42C114.18 48.02 113.88 46.82 113.28 45.82C112.68 44.78 111.66 43.8 110.22 42.88C108.78 41.92 106.72 40.88 104.04 39.76C100.12 38.12 97.34 36.46 95.7 34.78C94.06 33.06 93.24 31 93.24 28.6C93.24 26.72 93.72 25.02 94.68 23.5C95.64 21.98 96.96 20.8 98.64 19.96C100.36 19.08 102.28 18.64 104.4 18.64C106.24 18.64 107.9 18.96 109.38 19.6C110.86 20.2 112.02 21.06 112.86 22.18C113.7 23.26 114.12 24.48 114.12 25.84C114.12 27.44 113.52 28.76 112.32 29.8C111.16 30.84 109.72 31.26 108 31.06L108.24 27.94C108.88 28.02 109.44 27.86 109.92 27.46C110.4 27.02 110.64 26.46 110.64 25.78C110.64 24.74 110.02 23.84 108.78 23.08C107.54 22.32 106.1 21.94 104.46 21.94C103.1 21.94 101.82 22.24 100.62 22.84C99.46 23.4 98.54 24.18 97.86 25.18C97.18 26.18 96.84 27.26 96.84 28.42C96.84 30.1 97.54 31.6 98.94 32.92C100.38 34.2 102.78 35.56 106.14 37C110.34 38.8 113.32 40.66 115.08 42.58C116.88 44.46 117.78 46.72 117.78 49.36C117.78 51.72 117.16 53.9 115.92 55.9C114.68 57.86 113 59.42 110.88 60.58C108.76 61.7 106.44 62.26 103.92 62.26ZM128.674 55.96C128.674 56.52 128.854 57 129.214 57.4C129.614 57.76 130.074 57.94 130.594 57.94C131.394 57.94 131.974 57.6 132.334 56.92L134.974 58.9C134.654 59.58 134.094 60.16 133.294 60.64C132.494 61.08 131.594 61.3 130.594 61.3C128.994 61.3 127.674 60.8 126.634 59.8C125.594 58.8 125.074 57.5 125.074 55.9V31H128.674V55.96ZM125.674 26.26L131.074 15.46L134.314 17.2L127.714 27.58L125.674 26.26Z" fill="white"/>
<rect x="37.5" y="-1.24264" width="54.7903" height="54.7903" rx="12" transform="rotate(45 37.5 -1.24264)" stroke="white" stroke-width="6"/>
<path d="M20.9404 40.4898L29.4948 49.1655C30.278 49.9599 31.5598 49.9599 32.343 49.1655L53.3704 27.8398" stroke="white" stroke-width="5"/>
</svg>
