<svg width="1440" height="2560" viewBox="0 0 1440 2560" fill="none" xmlns="http://www.w3.org/2000/svg">
<g clip-path="url(#clip0_119_199)">
<rect width="1440" height="2560" fill="white"/>
<g opacity="0.15">
<path d="M1434.57 1166.28L752.32 1848.35L1434.57 2530.42L2116.83 1848.35L1434.57 1166.28Z" fill="#3D3D3D"/>
<path d="M1435.92 2561.45L1413.77 2540.69L1429 2525.47L1420.69 2515.78L1426.23 2510.24L1435.92 2518.55L1444.22 2510.24L1449.76 2515.78L1441.45 2525.47L1456.68 2540.69L1435.92 2561.45Z" fill="#A3A3A3"/>
<path d="M1401.31 2526.86L1388.85 2514.4L1419.3 2483.96L1431.76 2496.41L1401.31 2526.86ZM1376.39 2501.95L1363.93 2489.49L1394.39 2459.04L1406.85 2471.5L1376.39 2501.95ZM1351.47 2477.04L1339.02 2464.58L1369.47 2434.13L1381.93 2446.59L1351.47 2477.04ZM1325.17 2452.12L1312.71 2439.67L1343.17 2409.22L1355.63 2421.68L1325.17 2452.12ZM1300.25 2425.83L1287.8 2413.37L1318.25 2382.93L1330.71 2395.38L1300.25 2425.83ZM1275.34 2400.92L1262.88 2388.46L1293.33 2358.02L1305.79 2370.47L1275.34 2400.92ZM1250.42 2376.01L1237.96 2363.55L1268.42 2333.11L1280.87 2345.56L1250.42 2376.01ZM1224.12 2351.1L1211.66 2338.64L1242.11 2308.2L1254.57 2320.65L1224.12 2351.1ZM1199.2 2324.8L1186.74 2312.35L1217.2 2281.9L1229.65 2294.36L1199.2 2324.8ZM1174.28 2299.89L1161.82 2287.44L1192.28 2256.99L1204.74 2269.45L1174.28 2299.89ZM1147.98 2274.98L1135.52 2262.53L1165.98 2232.08L1178.44 2244.53L1147.98 2274.98ZM1123.06 2248.69L1110.6 2236.23L1141.06 2205.78L1153.52 2218.24L1123.06 2248.69ZM1098.15 2223.78L1085.69 2211.32L1116.14 2180.87L1128.6 2193.33L1098.15 2223.78ZM1073.23 2198.86L1060.77 2186.41L1091.22 2155.96L1103.68 2168.42L1073.23 2198.86ZM1046.93 2173.95L1034.47 2161.5L1064.92 2131.05L1077.38 2143.51L1046.93 2173.95ZM1022.01 2147.66L1009.55 2135.2L1040.01 2104.76L1052.46 2117.21L1022.01 2147.66ZM997.092 2122.75L984.633 2110.29L1015.09 2079.85L1027.55 2092.3L997.092 2122.75ZM972.174 2097.84L959.715 2085.38L990.17 2054.94L1002.63 2067.39L972.174 2097.84ZM945.872 2072.93L933.414 2060.47L963.868 2030.02L976.327 2042.48L945.872 2072.93ZM920.955 2046.63L908.496 2034.18L938.951 2003.73L951.41 2016.19L920.955 2046.63ZM896.038 2021.72L883.579 2009.27L914.033 1978.82L926.492 1991.27L896.038 2021.72ZM869.735 1996.81L857.277 1984.35L887.732 1953.91L900.19 1966.36L869.735 1996.81ZM844.818 1971.9L832.36 1959.44L862.814 1929L875.273 1941.45L844.818 1971.9ZM819.901 1945.6L807.442 1933.15L837.897 1902.7L850.355 1915.16L819.901 1945.6ZM794.983 1920.69L782.524 1908.24L812.979 1877.79L825.438 1890.25L794.983 1920.69ZM768.681 1895.78L756.223 1883.33L786.677 1852.88L799.136 1865.34L768.681 1895.78Z" fill="#A3A3A3"/>
<path d="M743.765 1869.49L723 1848.73L743.765 1827.97L758.992 1843.19L767.297 1833.5L774.219 1840.42L764.529 1848.73L774.219 1857.03L767.297 1863.95L758.992 1855.65L743.765 1869.49Z" fill="#A3A3A3"/>
<path d="M786.677 1844.58L756.223 1814.13L768.682 1801.68L799.136 1832.12L786.677 1844.58ZM811.595 1819.67L781.14 1789.22L793.599 1776.77L824.054 1807.21L811.595 1819.67ZM836.512 1794.76L806.058 1764.31L818.517 1751.85L848.971 1782.3L836.512 1794.76ZM862.814 1768.46L832.36 1738.02L844.818 1725.56L875.273 1756.01L862.814 1768.46ZM887.732 1743.55L857.277 1713.1L869.736 1700.65L900.19 1731.1L887.732 1743.55ZM912.649 1718.64L882.195 1688.19L894.653 1675.74L925.108 1706.18L912.649 1718.64ZM938.951 1693.73L908.496 1663.28L920.955 1650.83L951.41 1681.27L938.951 1693.73ZM963.869 1667.43L933.414 1636.99L945.872 1624.53L976.327 1654.98L963.869 1667.43ZM988.786 1642.52L958.331 1612.08L970.79 1599.62L1001.24 1630.07L988.786 1642.52ZM1013.7 1617.61L983.249 1587.17L995.707 1574.71L1026.16 1605.16L1013.7 1617.61ZM1040.01 1592.7L1009.55 1562.26L1022.01 1549.8L1052.46 1580.25L1040.01 1592.7ZM1064.92 1566.41L1034.47 1535.96L1046.93 1523.51L1077.38 1553.95L1064.92 1566.41ZM1089.84 1541.5L1059.39 1511.05L1071.84 1498.59L1102.3 1529.04L1089.84 1541.5ZM1114.76 1516.59L1084.3 1486.14L1096.76 1473.68L1127.22 1504.13L1114.76 1516.59ZM1141.06 1491.67L1110.6 1461.23L1123.06 1448.77L1153.52 1479.22L1141.06 1491.67ZM1165.98 1465.38L1135.52 1434.93L1147.98 1422.48L1178.44 1452.92L1165.98 1465.38ZM1190.89 1440.47L1160.44 1410.02L1172.9 1397.57L1203.35 1428.01L1190.89 1440.47ZM1215.81 1415.56L1185.36 1385.11L1197.82 1372.66L1228.27 1403.1L1215.81 1415.56ZM1242.11 1389.26L1211.66 1358.82L1224.12 1346.36L1254.57 1376.81L1242.11 1389.26ZM1267.03 1364.35L1236.58 1333.91L1249.04 1321.45L1279.49 1351.9L1267.03 1364.35ZM1291.95 1339.44L1261.49 1309L1273.95 1296.54L1304.41 1326.99L1291.95 1339.44ZM1318.25 1314.53L1287.8 1284.08L1300.25 1271.63L1330.71 1302.08L1318.25 1314.53ZM1343.17 1288.24L1312.71 1257.79L1325.17 1245.33L1355.63 1275.78L1343.17 1288.24ZM1368.09 1263.33L1337.63 1232.88L1350.09 1220.42L1380.54 1250.87L1368.09 1263.33ZM1393 1238.41L1362.55 1207.97L1375.01 1195.51L1405.46 1225.96L1393 1238.41ZM1419.3 1213.5L1388.85 1183.06L1401.31 1170.6L1431.76 1201.05L1419.3 1213.5Z" fill="#A3A3A3"/>
<path d="M1444.22 1187.21L1435.92 1178.9L1426.23 1187.21L1420.69 1181.67L1429 1171.98L1413.77 1158.14L1435.92 1136L1456.68 1158.14L1441.45 1171.98L1449.76 1181.67L1444.22 1187.21Z" fill="#A3A3A3"/>
<path d="M1469.14 2526.86L1438.69 2496.41L1451.14 2483.96L1481.6 2514.4L1469.14 2526.86ZM1494.06 2501.95L1463.6 2471.5L1476.06 2459.04L1506.52 2489.49L1494.06 2501.95ZM1520.36 2477.04L1489.9 2446.59L1502.36 2434.13L1532.82 2464.58L1520.36 2477.04ZM1545.28 2452.12L1514.82 2421.68L1527.28 2409.22L1557.74 2439.67L1545.28 2452.12ZM1570.19 2425.83L1539.74 2395.38L1552.2 2382.93L1582.65 2413.37L1570.19 2425.83ZM1595.11 2400.92L1564.66 2370.47L1577.12 2358.02L1607.57 2388.46L1595.11 2400.92ZM1621.41 2376.01L1590.96 2345.56L1603.42 2333.11L1633.87 2363.55L1621.41 2376.01ZM1646.33 2351.1L1615.88 2320.65L1628.33 2308.2L1658.79 2338.64L1646.33 2351.1ZM1671.25 2324.8L1640.79 2294.36L1653.25 2281.9L1683.71 2312.35L1671.25 2324.8ZM1696.17 2299.89L1665.71 2269.45L1678.17 2256.99L1708.62 2287.44L1696.17 2299.89ZM1722.47 2274.98L1692.01 2244.53L1704.47 2232.08L1734.93 2262.53L1722.47 2274.98ZM1747.39 2248.69L1716.93 2218.24L1729.39 2205.78L1759.84 2236.23L1747.39 2248.69ZM1772.3 2223.78L1741.85 2193.33L1754.31 2180.87L1784.76 2211.32L1772.3 2223.78ZM1798.6 2198.86L1768.15 2168.42L1780.61 2155.96L1811.06 2186.41L1798.6 2198.86ZM1823.52 2173.95L1793.07 2143.51L1805.53 2131.05L1835.98 2161.5L1823.52 2173.95ZM1848.44 2147.66L1817.98 2117.21L1830.44 2104.76L1860.9 2135.2L1848.44 2147.66ZM1873.36 2122.75L1842.9 2092.3L1855.36 2079.85L1885.82 2110.29L1873.36 2122.75ZM1899.66 2097.84L1869.2 2067.39L1881.66 2054.94L1912.12 2085.38L1899.66 2097.84ZM1924.58 2072.93L1894.12 2042.48L1906.58 2030.02L1937.03 2060.47L1924.58 2072.93ZM1949.49 2046.63L1919.04 2016.19L1931.5 2003.73L1961.95 2034.18L1949.49 2046.63ZM1974.41 2021.72L1943.96 1991.27L1956.41 1978.82L1986.87 2009.27L1974.41 2021.72ZM2000.71 1996.81L1970.26 1966.36L1982.72 1953.91L2013.17 1984.35L2000.71 1996.81ZM2025.63 1971.9L1995.18 1941.45L2007.63 1929L2038.09 1959.44L2025.63 1971.9ZM2050.55 1945.6L2020.09 1915.16L2032.55 1902.7L2063.01 1933.15L2050.55 1945.6ZM2076.85 1920.69L2046.39 1890.25L2058.85 1877.79L2089.31 1908.24L2076.85 1920.69ZM2101.77 1895.78L2071.31 1865.34L2083.77 1852.88L2114.23 1883.33L2101.77 1895.78Z" fill="#A3A3A3"/>
<path d="M1435.92 2367.7L1412.38 2344.18L1428.99 2327.57L1419.3 2317.88L1426.23 2312.35L1435.92 2320.65L1444.22 2312.35L1451.14 2317.88L1442.84 2327.57L1458.06 2344.18L1435.92 2367.7Z" fill="#A3A3A3"/>
<path d="M1398.54 2330.34L1384.7 2316.5L1417.92 2283.28L1431.76 2297.12L1398.54 2330.34ZM1372.24 2304.04L1358.4 2290.2L1391.62 2256.99L1405.46 2270.83L1372.24 2304.04ZM1344.55 2276.36L1330.71 2262.53L1363.93 2229.31L1377.78 2243.15L1344.55 2276.36ZM1318.25 2250.07L1304.41 2236.23L1337.63 2203.02L1351.47 2216.86L1318.25 2250.07ZM1290.56 2222.39L1276.72 2208.55L1309.94 2175.34L1323.79 2189.18L1290.56 2222.39ZM1264.26 2196.1L1250.42 2182.26L1283.64 2149.04L1297.49 2162.88L1264.26 2196.1ZM1236.58 2168.42L1222.73 2154.58L1255.96 2121.36L1269.8 2135.2L1236.58 2168.42ZM1210.27 2142.12L1196.43 2128.28L1229.65 2095.07L1243.5 2108.91L1210.27 2142.12ZM1182.59 2114.44L1168.75 2100.6L1201.97 2067.39L1215.81 2081.23L1182.59 2114.44ZM1156.29 2088.15L1142.44 2074.31L1175.67 2041.1L1189.51 2054.93L1156.29 2088.15ZM1128.6 2060.47L1114.76 2046.63L1147.98 2013.42L1161.82 2027.26L1128.6 2060.47ZM1102.3 2034.18L1088.46 2020.34L1121.68 1987.12L1135.52 2000.96L1102.3 2034.18ZM1074.61 2006.5L1060.77 1992.66L1093.99 1959.44L1107.84 1973.28L1074.61 2006.5ZM1048.31 1980.2L1034.47 1966.36L1067.69 1933.15L1081.53 1946.99L1048.31 1980.2ZM1020.62 1952.52L1006.78 1938.68L1040.01 1905.47L1053.85 1919.31L1020.62 1952.52ZM994.323 1926.23L980.48 1912.39L1013.7 1879.17L1027.55 1893.01L994.323 1926.23ZM966.637 1898.55L952.794 1884.71L986.017 1851.5L999.86 1865.34L966.637 1898.55Z" fill="#A3A3A3"/>
<path d="M940.335 1872.26L916.802 1848.73L940.335 1825.2L955.563 1841.81L965.253 1832.12L972.175 1839.04L962.484 1848.73L972.175 1858.42L965.253 1865.34L955.563 1855.65L940.335 1872.26Z" fill="#A3A3A3"/>
<path d="M986.017 1844.57L952.794 1811.36L966.637 1797.52L999.86 1830.74L986.017 1844.57ZM1012.32 1818.28L979.096 1785.07L992.939 1771.23L1026.16 1804.44L1012.32 1818.28ZM1040.01 1790.6L1006.78 1757.39L1020.62 1743.55L1053.85 1776.76L1040.01 1790.6ZM1066.31 1764.31L1033.08 1731.09L1046.93 1717.25L1080.15 1750.47L1066.31 1764.31ZM1093.99 1736.63L1060.77 1703.41L1074.61 1689.57L1107.84 1722.79L1093.99 1736.63ZM1120.29 1710.33L1087.07 1677.12L1100.91 1663.28L1134.14 1696.49L1120.29 1710.33ZM1147.98 1682.65L1114.76 1649.44L1128.6 1635.6L1161.82 1668.81L1147.98 1682.65ZM1174.28 1656.36L1141.06 1623.15L1154.9 1609.31L1188.13 1642.52L1174.28 1656.36ZM1201.97 1628.68L1168.75 1595.47L1182.59 1581.63L1215.81 1614.84L1201.97 1628.68ZM1228.27 1602.39L1195.05 1569.17L1208.89 1555.33L1242.11 1588.55L1228.27 1602.39ZM1255.96 1574.71L1222.73 1541.49L1236.58 1527.65L1269.8 1560.87L1255.96 1574.71ZM1282.26 1548.41L1249.04 1515.2L1262.88 1501.36L1296.1 1534.57L1282.26 1548.41ZM1309.94 1520.73L1276.72 1487.52L1290.56 1473.68L1323.79 1506.9L1309.94 1520.73ZM1336.25 1494.44L1303.02 1461.22L1316.87 1447.39L1350.09 1480.6L1336.25 1494.44ZM1363.93 1466.76L1330.71 1433.55L1344.55 1419.71L1377.78 1452.92L1363.93 1466.76ZM1390.23 1440.47L1357.01 1407.25L1370.85 1393.41L1404.08 1426.63L1390.23 1440.47ZM1417.92 1412.79L1384.7 1379.57L1398.54 1365.73L1431.76 1398.95L1417.92 1412.79Z" fill="#A3A3A3"/>
<path d="M1426.23 1386.49L1419.3 1379.58L1428.99 1369.89L1412.38 1353.28L1435.92 1329.75L1458.06 1353.28L1442.84 1369.89L1451.14 1379.58L1444.22 1386.49L1435.92 1376.81L1426.23 1386.49Z" fill="#A3A3A3"/>
<path d="M1884.43 1844.57L1870.59 1830.74L1903.81 1797.52L1917.65 1811.36L1884.43 1844.57ZM1858.13 1818.28L1844.29 1804.44L1877.51 1771.23L1891.35 1785.07L1858.13 1818.28ZM1830.44 1790.6L1816.6 1776.76L1849.82 1743.55L1863.67 1757.39L1830.44 1790.6ZM1804.14 1764.31L1790.3 1750.47L1823.52 1717.25L1837.37 1731.09L1804.14 1764.31ZM1776.46 1736.63L1762.61 1722.79L1795.84 1689.57L1809.68 1703.41L1776.46 1736.63ZM1750.15 1710.33L1736.31 1696.49L1769.53 1663.28L1783.38 1677.12L1750.15 1710.33ZM1722.47 1682.65L1708.62 1668.81L1741.85 1635.6L1755.69 1649.44L1722.47 1682.65ZM1696.17 1656.36L1682.32 1642.52L1715.55 1609.31L1729.39 1623.15L1696.17 1656.36ZM1668.48 1628.68L1654.64 1614.84L1687.86 1581.63L1701.7 1595.47L1668.48 1628.68ZM1642.18 1602.39L1628.33 1588.55L1661.56 1555.33L1675.4 1569.17L1642.18 1602.39ZM1614.49 1574.71L1600.65 1560.87L1633.87 1527.65L1647.72 1541.49L1614.49 1574.71ZM1588.19 1548.41L1574.35 1534.57L1607.57 1501.36L1621.41 1515.2L1588.19 1548.41ZM1560.5 1520.73L1546.66 1506.9L1579.88 1473.68L1593.73 1487.52L1560.5 1520.73ZM1534.2 1494.44L1520.36 1480.6L1553.58 1447.39L1567.43 1461.22L1534.2 1494.44ZM1506.52 1466.76L1492.67 1452.92L1525.9 1419.71L1539.74 1433.55L1506.52 1466.76ZM1480.21 1440.47L1466.37 1426.63L1499.59 1393.41L1513.44 1407.25L1480.21 1440.47ZM1452.53 1412.79L1438.69 1398.95L1471.91 1365.73L1485.75 1379.57L1452.53 1412.79Z" fill="#A3A3A3"/>
<path d="M1471.91 2330.34L1438.69 2297.12L1452.53 2283.28L1485.75 2316.5L1471.91 2330.34ZM1499.59 2304.04L1466.37 2270.83L1480.21 2256.99L1513.44 2290.2L1499.59 2304.04ZM1525.9 2276.36L1492.67 2243.15L1506.52 2229.31L1539.74 2262.53L1525.9 2276.36ZM1553.58 2250.07L1520.36 2216.86L1534.2 2203.02L1567.43 2236.23L1553.58 2250.07ZM1579.88 2222.39L1546.66 2189.18L1560.5 2175.34L1593.73 2208.55L1579.88 2222.39ZM1607.57 2196.1L1574.35 2162.88L1588.19 2149.04L1621.41 2182.26L1607.57 2196.1ZM1633.87 2168.42L1600.65 2135.2L1614.49 2121.36L1647.72 2154.58L1633.87 2168.42ZM1661.56 2142.12L1628.33 2108.91L1642.18 2095.07L1675.4 2128.28L1661.56 2142.12ZM1687.86 2114.44L1654.64 2081.23L1668.48 2067.39L1701.7 2100.6L1687.86 2114.44ZM1715.55 2088.15L1682.32 2054.93L1696.17 2041.1L1729.39 2074.31L1715.55 2088.15ZM1741.85 2060.47L1708.62 2027.26L1722.47 2013.42L1755.69 2046.63L1741.85 2060.47ZM1769.53 2034.18L1736.31 2000.96L1750.15 1987.12L1783.38 2020.34L1769.53 2034.18ZM1795.84 2006.5L1762.61 1973.28L1776.46 1959.44L1809.68 1992.66L1795.84 2006.5ZM1823.52 1980.2L1790.3 1946.99L1804.14 1933.15L1837.37 1966.36L1823.52 1980.2ZM1849.82 1952.52L1816.6 1919.31L1830.44 1905.47L1863.67 1938.68L1849.82 1952.52ZM1877.51 1926.23L1844.29 1893.01L1858.13 1879.17L1891.35 1912.39L1877.51 1926.23ZM1903.81 1898.55L1870.59 1865.34L1884.43 1851.5L1917.65 1884.71L1903.81 1898.55Z" fill="#A3A3A3"/>
<path d="M1435.18 2154.73L1741.55 1848.44L1435.18 1542.14L1128.8 1848.44L1435.18 2154.73Z" fill="#A3A3A3"/>
</g>
</g>
<defs>
<clipPath id="clip0_119_199">
<rect width="1440" height="2560" fill="white"/>
</clipPath>
</defs>
</svg>
