<svg width="1440" height="2560" viewBox="0 0 1440 2560" fill="none" xmlns="http://www.w3.org/2000/svg">
<g clip-path="url(#clip0_45_2)">
<rect width="1440" height="2560" fill="white"/>
<path d="M65.6519 94.28C66.1953 94.7447 66.8867 95 67.6017 95H194.398C195.113 95 195.805 94.7447 196.348 94.28L205.287 86.6361C206.703 85.425 206.684 83.2292 205.247 82.0427L196.338 74.6866C195.8 74.2428 195.125 74 194.428 74H67.5723C66.8752 74 66.1998 74.2428 65.6622 74.6866L56.753 82.0427C55.316 83.2292 55.297 85.425 56.7133 86.6361L65.6519 94.28Z" fill="white"/>
<rect x="721.937" y="1616.49" width="1020.28" height="1020.28" transform="rotate(135 721.937 1616.49)" stroke="#D9D9D9" stroke-width="7"/>
<rect x="2123.94" y="949.495" width="969.008" height="969.008" transform="rotate(135 2123.94 949.495)" stroke="#D9D9D9" stroke-width="7"/>
<rect y="291" width="115.966" height="115.966" rx="7" transform="rotate(45 0 291)" fill="#D9D9D9"/>
</g>
<defs>
<clipPath id="clip0_45_2">
<rect width="1440" height="2560" fill="white"/>
</clipPath>
</defs>
</svg>
