<svg width="1440" height="2560" viewBox="0 0 1440 2560" fill="none" xmlns="http://www.w3.org/2000/svg">
<g clip-path="url(#clip0_120_277)">
<rect width="1440" height="2560" fill="white"/>
<rect x="0.5" width="195.161" height="195.869" rx="7" transform="rotate(45 0.5 0)" fill="#D9D9D9"/>
<g opacity="0.15">
<path d="M1441.48 -442.362L999.015 -0.0175781L1441.48 442.327L1883.94 -0.0175781L1441.48 -442.362Z" fill="#3D3D3D"/>
<path d="M1442.35 462.448L1427.98 448.985L1437.86 439.113L1432.47 432.83L1436.06 429.24L1442.35 434.625L1447.74 429.24L1451.33 432.83L1445.94 439.113L1455.82 448.985L1442.35 462.448Z" fill="#A3A3A3"/>
<path d="M1419.9 440.014L1411.82 431.937L1431.58 412.191L1439.66 420.269L1419.9 440.014ZM1403.74 423.859L1395.66 415.782L1415.42 396.036L1423.5 404.113L1403.74 423.859ZM1387.59 407.704L1379.51 399.626L1399.26 379.881L1407.34 387.958L1387.59 407.704ZM1370.53 391.548L1362.45 383.47L1382.2 363.725L1390.28 371.803L1370.53 391.548ZM1354.37 374.495L1346.29 366.418L1366.04 346.672L1374.12 354.75L1354.37 374.495ZM1338.21 358.34L1330.13 350.262L1349.88 330.517L1357.96 338.594L1338.21 358.34ZM1322.05 342.185L1313.97 334.107L1333.72 314.361L1341.8 322.439L1322.05 342.185ZM1304.99 326.029L1296.91 317.951L1316.66 298.206L1324.74 306.284L1304.99 326.029ZM1288.83 308.976L1280.75 300.898L1300.5 281.153L1308.58 289.23L1288.83 308.976ZM1272.67 292.821L1264.59 284.743L1284.34 264.997L1292.42 273.075L1272.67 292.821ZM1255.61 276.665L1247.53 268.587L1267.28 248.842L1275.36 256.92L1255.61 276.665ZM1239.45 259.612L1231.37 251.534L1251.12 231.789L1259.2 239.866L1239.45 259.612ZM1223.29 243.457L1215.21 235.379L1234.97 215.633L1243.04 223.711L1223.29 243.457ZM1207.13 227.301L1199.05 219.223L1218.81 199.478L1226.89 207.556L1207.13 227.301ZM1190.08 211.145L1182 203.068L1201.75 183.322L1209.83 191.4L1190.08 211.145ZM1173.92 194.093L1165.84 186.015L1185.59 166.269L1193.67 174.347L1173.92 194.093ZM1157.76 177.937L1149.68 169.859L1169.43 150.114L1177.51 158.192L1157.76 177.937ZM1141.6 161.782L1133.52 153.704L1153.27 133.958L1161.35 142.036L1141.6 161.782ZM1124.54 145.626L1116.46 137.549L1136.21 117.803L1144.29 125.881L1124.54 145.626ZM1108.38 128.574L1100.3 120.496L1120.05 100.75L1128.13 108.828L1108.38 128.574ZM1092.22 112.418L1084.14 104.34L1103.89 84.5945L1111.97 92.6725L1092.22 112.418ZM1075.16 96.2623L1067.08 88.1849L1086.83 68.4392L1094.91 76.5166L1075.16 96.2623ZM1059 80.1069L1050.92 72.029L1070.67 52.2838L1078.75 60.3612L1059 80.1069ZM1042.84 63.0537L1034.76 54.9763L1054.51 35.2306L1062.59 43.3086L1042.84 63.0537ZM1026.68 46.8984L1018.6 38.8209L1038.35 19.0753L1046.43 27.1527L1026.68 46.8984ZM1009.63 30.743L1001.55 22.665L1021.3 2.91992L1029.38 10.9973L1009.63 30.743Z" fill="#A3A3A3"/>
<path d="M993.466 13.6894L980 0.226559L993.466 -13.2363L1003.34 -3.36322L1008.73 -9.64601L1013.22 -5.15838L1006.93 0.226559L1013.22 5.61204L1008.73 10.0997L1003.34 4.71419L993.466 13.6894Z" fill="#A3A3A3"/>
<path d="M1442.35 336.799L1427.09 321.542L1437.86 310.772L1431.58 304.489L1436.06 300.898L1442.35 306.284L1447.74 300.898L1452.22 304.489L1446.84 310.772L1456.71 321.542L1442.35 336.799Z" fill="#A3A3A3"/>
<path d="M1418.11 312.566L1409.13 303.59L1430.68 282.05L1439.66 291.025L1418.11 312.566ZM1401.05 295.513L1392.07 286.537L1413.62 264.996L1422.6 273.972L1401.05 295.513ZM1383.1 277.562L1374.12 268.587L1395.66 247.046L1404.64 256.021L1383.1 277.562ZM1366.04 260.509L1357.06 251.534L1378.61 229.993L1387.58 238.969L1366.04 260.509ZM1348.08 242.558L1339.11 233.583L1360.65 212.043L1369.63 221.018L1348.08 242.558ZM1331.03 225.506L1322.05 216.53L1343.59 194.99L1352.57 203.965L1331.03 225.506ZM1313.07 207.555L1304.09 198.58L1325.64 177.039L1334.62 186.014L1313.07 207.555ZM1296.01 190.502L1287.04 181.527L1308.58 159.986L1317.56 168.962L1296.01 190.502ZM1278.06 172.551L1269.08 163.576L1290.63 142.036L1299.6 151.011L1278.06 172.551ZM1261 155.499L1252.02 146.523L1273.57 124.983L1282.55 133.958L1261 155.499ZM1243.04 137.548L1234.07 128.573L1255.61 107.032L1264.59 116.007L1243.04 137.548ZM1225.99 120.495L1217.01 111.52L1238.56 89.9789L1247.53 98.9542L1225.99 120.495ZM1208.03 102.544L1199.05 93.5692L1220.6 72.0284L1229.58 81.0036L1208.03 102.544ZM1190.97 85.4913L1182 76.516L1203.54 54.9757L1212.52 63.951L1190.97 85.4913ZM1173.02 67.5408L1164.04 58.5655L1185.59 37.0252L1194.57 46.0005L1173.02 67.5408ZM1155.96 50.4881L1146.98 41.5128L1168.53 19.972L1177.51 28.9473L1155.96 50.4881ZM1138.01 32.5376L1129.03 23.5623L1150.57 2.02148L1159.55 10.9967L1138.01 32.5376Z" fill="#A3A3A3"/>
<path d="M1120.95 15.4862L1105.69 0.2282L1120.95 -15.0293L1130.82 -4.25943L1137.11 -10.5417L1141.6 -6.05404L1135.31 0.2282L1141.6 6.51099L1137.11 10.9986L1130.82 4.71583L1120.95 15.4862Z" fill="#A3A3A3"/>
<path d="M1441.87 198.68L1640.56 0.0380859L1441.87 -198.604L1243.17 0.0380859L1441.87 198.68Z" fill="#A3A3A3"/>
</g>
<g opacity="0.15">
<path d="M2.57255 1165.28L-679.68 1847.35L2.57255 2529.42L684.825 1847.35L2.57255 1165.28Z" fill="#3D3D3D"/>
<path d="M3.91678 2560.45L-18.2322 2539.69L-3.00474 2524.47L-11.3107 2514.78L-5.77352 2509.24L3.91678 2517.55L12.2223 2509.24L17.7598 2514.78L9.45391 2524.47L24.6813 2539.69L3.91678 2560.45Z" fill="#A3A3A3"/>
<path d="M12.2223 1186.21L3.91678 1177.9L-5.77352 1186.21L-11.3107 1180.67L-3.00474 1170.98L-18.2322 1157.14L3.91678 1135L24.6813 1157.14L9.45391 1170.98L17.7598 1180.67L12.2223 1186.21Z" fill="#A3A3A3"/>
<path d="M651.771 1843.58L639.312 1831.12L669.767 1800.68L682.226 1813.13L651.771 1843.58ZM626.854 1818.67L614.395 1806.21L644.849 1775.77L657.308 1788.22L626.854 1818.67ZM601.936 1793.76L589.477 1781.3L619.932 1750.85L632.391 1763.31L601.936 1793.76ZM575.634 1767.46L563.176 1755.01L593.63 1724.56L606.089 1737.02L575.634 1767.46ZM550.717 1742.55L538.258 1730.1L568.713 1699.65L581.171 1712.1L550.717 1742.55ZM525.799 1717.64L513.34 1705.18L543.795 1674.74L556.254 1687.19L525.799 1717.64ZM500.882 1692.73L488.423 1680.27L518.878 1649.83L531.336 1662.28L500.882 1692.73ZM474.58 1666.43L462.121 1653.98L492.576 1623.53L505.035 1635.99L474.58 1666.43ZM449.662 1641.52L437.204 1629.07L467.659 1598.62L480.117 1611.08L449.662 1641.52ZM424.745 1616.61L412.286 1604.16L442.741 1573.71L455.2 1586.17L424.745 1616.61ZM399.827 1591.7L387.369 1579.25L417.824 1548.8L430.282 1561.26L399.827 1591.7ZM373.526 1565.41L361.067 1552.95L391.522 1522.51L403.98 1534.96L373.526 1565.41ZM348.608 1540.5L336.15 1528.04L366.604 1497.59L379.063 1510.05L348.608 1540.5ZM323.691 1515.59L311.232 1503.13L341.687 1472.68L354.145 1485.14L323.691 1515.59ZM298.773 1490.67L286.315 1478.22L316.769 1447.77L329.228 1460.23L298.773 1490.67ZM272.472 1464.38L260.013 1451.92L290.467 1421.48L302.926 1433.93L272.472 1464.38ZM247.554 1439.47L235.095 1427.01L265.55 1396.57L278.009 1409.02L247.554 1439.47ZM222.637 1414.56L210.178 1402.1L240.632 1371.66L253.091 1384.11L222.637 1414.56ZM196.335 1388.26L183.876 1375.81L214.331 1345.36L226.789 1357.82L196.335 1388.26ZM171.417 1363.35L158.958 1350.9L189.413 1320.45L201.872 1332.91L171.417 1363.35ZM146.5 1338.44L134.041 1325.99L164.496 1295.54L176.955 1308L146.5 1338.44ZM121.582 1313.53L109.123 1301.08L139.578 1270.63L152.037 1283.08L121.582 1313.53ZM95.2803 1287.24L82.8217 1274.78L113.277 1244.33L125.735 1256.79L95.2803 1287.24ZM70.363 1262.33L57.9044 1249.87L88.3588 1219.42L100.818 1231.88L70.363 1262.33ZM45.4457 1237.41L32.9866 1224.96L63.4415 1194.51L75.9002 1206.97L45.4457 1237.41ZM20.528 1212.5L8.06934 1200.05L38.5242 1169.6L50.9829 1182.06L20.528 1212.5Z" fill="#A3A3A3"/>
<path d="M694.685 1868.49L679.457 1854.65L671.152 1862.95L664.23 1856.03L673.92 1847.73L664.23 1839.42L671.152 1832.5L679.457 1842.19L694.685 1826.97L715.449 1847.73L694.685 1868.49Z" fill="#A3A3A3"/>
<path d="M37.1399 2525.86L6.68506 2495.41L19.1437 2482.96L49.5986 2513.4L37.1399 2525.86ZM62.0572 2500.95L31.6028 2470.5L44.0615 2458.04L74.5159 2488.49L62.0572 2500.95ZM88.3589 2476.04L57.9045 2445.59L70.3632 2433.13L100.818 2463.58L88.3589 2476.04ZM113.277 2451.12L82.8218 2420.68L95.2805 2408.22L125.735 2438.67L113.277 2451.12ZM138.194 2424.83L107.74 2394.38L120.198 2381.93L150.653 2412.37L138.194 2424.83ZM163.112 2399.92L132.657 2369.47L145.116 2357.02L175.57 2387.46L163.112 2399.92ZM189.413 2375.01L158.959 2344.56L171.417 2332.11L201.872 2362.55L189.413 2375.01ZM214.331 2350.1L183.876 2319.65L196.335 2307.2L226.789 2337.64L214.331 2350.1ZM239.248 2323.8L208.794 2293.36L221.252 2280.9L251.707 2311.35L239.248 2323.8ZM264.166 2298.89L233.711 2268.45L246.17 2255.99L276.624 2286.44L264.166 2298.89ZM290.467 2273.98L260.013 2243.53L272.472 2231.08L302.926 2261.53L290.467 2273.98ZM315.385 2247.69L284.93 2217.24L297.389 2204.78L327.844 2235.23L315.385 2247.69ZM340.303 2222.78L309.848 2192.33L322.307 2179.87L352.761 2210.32L340.303 2222.78ZM366.604 2197.86L336.15 2167.42L348.608 2154.96L379.063 2185.41L366.604 2197.86ZM391.522 2172.95L361.067 2142.51L373.526 2130.05L403.981 2160.5L391.522 2172.95ZM416.439 2146.66L385.984 2116.21L398.444 2103.76L428.898 2134.2L416.439 2146.66ZM441.357 2121.75L410.902 2091.3L423.361 2078.85L453.816 2109.29L441.357 2121.75ZM467.659 2096.84L437.204 2066.39L449.663 2053.94L480.117 2084.38L467.659 2096.84ZM492.576 2071.93L462.121 2041.48L474.58 2029.02L505.035 2059.47L492.576 2071.93ZM517.493 2045.63L487.039 2015.19L499.498 2002.73L529.952 2033.18L517.493 2045.63ZM542.411 2020.72L511.956 1990.27L524.415 1977.82L554.87 2008.27L542.411 2020.72ZM568.713 1995.81L538.258 1965.36L550.717 1952.91L581.171 1983.35L568.713 1995.81ZM593.63 1970.9L563.176 1940.45L575.634 1928L606.089 1958.44L593.63 1970.9ZM618.548 1944.6L588.093 1914.16L600.552 1901.7L631.007 1932.15L618.548 1944.6ZM644.85 1919.69L614.395 1889.25L626.854 1876.79L657.308 1907.24L644.85 1919.69ZM669.767 1894.78L639.312 1864.34L651.771 1851.88L682.226 1882.33L669.767 1894.78Z" fill="#A3A3A3"/>
<path d="M3.91616 2366.7L-19.6172 2343.18L-3.00536 2326.57L-12.6957 2316.88L-5.77414 2311.35L3.91616 2319.65L12.2216 2311.35L19.1432 2316.88L10.8377 2326.57L26.0647 2343.18L3.91616 2366.7Z" fill="#A3A3A3"/>
<path d="M-5.77414 1385.49L-12.6957 1378.58L-3.00536 1368.89L-19.6172 1352.28L3.91616 1328.75L26.0647 1352.28L10.8377 1368.89L19.1432 1378.58L12.2216 1385.49L3.91616 1375.81L-5.77414 1385.49Z" fill="#A3A3A3"/>
<path d="M452.431 1843.57L438.588 1829.74L471.811 1796.52L485.655 1810.36L452.431 1843.57ZM426.13 1817.28L412.287 1803.44L445.51 1770.23L459.353 1784.07L426.13 1817.28ZM398.443 1789.6L384.6 1775.76L417.824 1742.55L431.667 1756.39L398.443 1789.6ZM372.141 1763.31L358.298 1749.47L391.522 1716.25L405.365 1730.09L372.141 1763.31ZM344.455 1735.63L330.612 1721.79L363.836 1688.57L377.679 1702.41L344.455 1735.63ZM318.154 1709.33L304.311 1695.49L337.534 1662.28L351.377 1676.12L318.154 1709.33ZM290.467 1681.65L276.624 1667.81L309.848 1634.6L323.691 1648.44L290.467 1681.65ZM264.166 1655.36L250.323 1641.52L283.546 1608.31L297.389 1622.15L264.166 1655.36ZM236.48 1627.68L222.637 1613.84L255.86 1580.63L269.703 1594.47L236.48 1627.68ZM210.178 1601.39L196.335 1587.55L229.558 1554.33L243.401 1568.17L210.178 1601.39ZM182.492 1573.71L168.649 1559.87L201.872 1526.65L215.715 1540.49L182.492 1573.71ZM156.19 1547.41L142.347 1533.57L175.57 1500.36L189.413 1514.2L156.19 1547.41ZM128.504 1519.73L114.661 1505.9L147.884 1472.68L161.727 1486.52L128.504 1519.73ZM102.202 1493.44L88.3589 1479.6L121.583 1446.39L135.426 1460.22L102.202 1493.44ZM74.5159 1465.76L60.6729 1451.92L93.8965 1418.71L107.74 1432.55L74.5159 1465.76ZM48.2142 1439.47L34.3711 1425.63L67.5944 1392.41L81.4374 1406.25L48.2142 1439.47ZM20.5281 1411.79L6.68506 1397.95L39.9083 1364.73L53.7513 1378.57L20.5281 1411.79Z" fill="#A3A3A3"/>
<path d="M499.497 1871.26L482.885 1854.65L473.195 1864.34L466.273 1857.42L475.963 1847.73L466.273 1838.04L473.195 1831.12L482.885 1840.81L499.497 1824.2L521.646 1847.73L499.497 1871.26Z" fill="#A3A3A3"/>
<path d="M39.9083 2329.34L6.68506 2296.12L20.5281 2282.28L53.7513 2315.5L39.9083 2329.34ZM67.5944 2303.04L34.3711 2269.83L48.2142 2255.99L81.4374 2289.2L67.5944 2303.04ZM93.8965 2275.36L60.6729 2242.15L74.5159 2228.31L107.74 2261.53L93.8965 2275.36ZM121.583 2249.07L88.3589 2215.86L102.202 2202.02L135.426 2235.23L121.583 2249.07ZM147.884 2221.39L114.661 2188.18L128.504 2174.34L161.727 2207.55L147.884 2221.39ZM175.57 2195.1L142.347 2161.88L156.19 2148.04L189.413 2181.26L175.57 2195.1ZM201.872 2167.42L168.649 2134.2L182.492 2120.36L215.715 2153.58L201.872 2167.42ZM229.558 2141.12L196.335 2107.91L210.178 2094.07L243.401 2127.28L229.558 2141.12ZM255.86 2113.44L222.637 2080.23L236.48 2066.39L269.703 2099.6L255.86 2113.44ZM283.546 2087.15L250.323 2053.93L264.166 2040.1L297.389 2073.31L283.546 2087.15ZM309.848 2059.47L276.624 2026.26L290.467 2012.42L323.691 2045.63L309.848 2059.47ZM337.534 2033.18L304.311 1999.96L318.154 1986.12L351.377 2019.34L337.534 2033.18ZM363.836 2005.5L330.612 1972.28L344.455 1958.44L377.679 1991.66L363.836 2005.5ZM391.522 1979.2L358.298 1945.99L372.141 1932.15L405.365 1965.36L391.522 1979.2ZM417.824 1951.52L384.6 1918.31L398.443 1904.47L431.667 1937.68L417.824 1951.52ZM445.51 1925.23L412.287 1892.01L426.13 1878.17L459.353 1911.39L445.51 1925.23ZM471.811 1897.55L438.588 1864.34L452.431 1850.5L485.655 1883.71L471.811 1897.55Z" fill="#A3A3A3"/>
<path d="M3.17687 2153.73L309.554 1847.44L3.17687 1541.14L-303.2 1847.44L3.17687 2153.73Z" fill="#A3A3A3"/>
</g>
</g>
<defs>
<clipPath id="clip0_120_277">
<rect width="1440" height="2560" fill="white"/>
</clipPath>
</defs>
</svg>
