<svg width="1440" height="2801" viewBox="0 0 1440 2801" fill="none" xmlns="http://www.w3.org/2000/svg">
<rect width="1440" height="2801" fill="white"/>
<rect x="497.242" y="582" width="35.4247" height="35.4247" transform="rotate(45 497.242 582)" fill="#D9D9D9"/>
<rect x="497.242" y="138" width="35.4247" height="35.4247" transform="rotate(45 497.242 138)" fill="#D9D9D9"/>
<rect x="829.145" y="582" width="35.4247" height="35.4247" transform="rotate(45 829.145 582)" fill="#D9D9D9"/>
<rect x="829.145" y="138" width="35.4247" height="35.4247" transform="rotate(45 829.145 138)" fill="#D9D9D9"/>
<rect x="363.049" y="582" width="35.4247" height="35.4247" transform="rotate(45 363.049 582)" fill="#D9D9D9"/>
<rect x="363.049" y="138" width="35.4247" height="35.4247" transform="rotate(45 363.049 138)" fill="#D9D9D9"/>
<rect x="694.952" y="582" width="35.4247" height="35.4247" transform="rotate(45 694.952 582)" fill="#D9D9D9"/>
<rect x="694.952" y="138" width="35.4247" height="35.4247" transform="rotate(45 694.952 138)" fill="#D9D9D9"/>
<rect x="564.338" y="582" width="35.4247" height="35.4247" transform="rotate(45 564.338 582)" fill="#D9D9D9"/>
<rect x="564.338" y="138" width="35.4247" height="35.4247" transform="rotate(45 564.338 138)" fill="#D9D9D9"/>
<rect x="896.24" y="582" width="35.4247" height="35.4247" transform="rotate(45 896.24 582)" fill="#D9D9D9"/>
<rect x="896.24" y="138" width="35.4247" height="35.4247" transform="rotate(45 896.24 138)" fill="#D9D9D9"/>
<rect x="1026.85" y="582" width="35.4247" height="35.4247" transform="rotate(45 1026.85 582)" fill="#D9D9D9"/>
<rect x="1026.85" y="138" width="35.4247" height="35.4247" transform="rotate(45 1026.85 138)" fill="#D9D9D9"/>
<rect x="430.146" y="582" width="35.4247" height="35.4247" transform="rotate(45 430.146 582)" fill="#D9D9D9"/>
<rect x="430.146" y="138" width="35.4247" height="35.4247" transform="rotate(45 430.146 138)" fill="#D9D9D9"/>
<rect x="762.048" y="582" width="35.4247" height="35.4247" transform="rotate(45 762.048 582)" fill="#D9D9D9"/>
<rect x="762.048" y="138" width="35.4247" height="35.4247" transform="rotate(45 762.048 138)" fill="#D9D9D9"/>
<rect x="631.435" y="582" width="35.4247" height="35.4247" transform="rotate(45 631.435 582)" fill="#D9D9D9"/>
<rect x="631.435" y="138" width="35.4247" height="35.4247" transform="rotate(45 631.435 138)" fill="#D9D9D9"/>
<rect x="963.337" y="582" width="35.4247" height="35.4247" transform="rotate(45 963.337 582)" fill="#D9D9D9"/>
<rect x="963.337" y="138" width="35.4247" height="35.4247" transform="rotate(45 963.337 138)" fill="#D9D9D9"/>
<rect x="1093.95" y="582" width="35.4247" height="35.4247" transform="rotate(45 1093.95 582)" fill="#D9D9D9"/>
<rect x="1093.95" y="138" width="35.4247" height="35.4247" transform="rotate(45 1093.95 138)" fill="#D9D9D9"/>
<rect y="856" width="1440" height="845" fill="#D9D9D9"/>
</svg>
