<svg width="1440" height="2560" viewBox="0 0 1440 2560" fill="none" xmlns="http://www.w3.org/2000/svg">
<g clip-path="url(#clip0_91_86)">
<rect width="1440" height="2560" fill="white"/>
<path d="M379 0L1061 -0.000119245L1061 87C1061 98.0457 1052.05 107 1041 107L399 107C387.954 107 379 98.0458 379 87.0001L379 0Z" fill="#3D3D3D"/>
<rect x="0.5" width="195.161" height="195.869" rx="7" transform="rotate(45 0.5 0)" fill="#3D3D3D"/>
<rect y="777" width="1440" height="208" fill="#3D3D3D"/>
<rect y="807" width="88.7738" height="89.0955" rx="7" transform="rotate(45 0 807)" fill="#A3A3A3"/>
<rect x="1441" y="807" width="88.7738" height="89.0955" transform="rotate(45 1441 807)" fill="#A3A3A3"/>
<rect width="169.706" height="169.706" rx="7" transform="matrix(0.707107 0.707107 0.707107 -0.707107 600 1160)" fill="#D9D9D9"/>
<path d="M182.32 1939.6C182.027 1939.6 181.787 1939.69 181.6 1939.88C181.44 1940.04 181.36 1940.25 181.36 1940.52C181.36 1940.6 181.387 1940.75 181.44 1940.96H178.32C178.267 1940.37 178.333 1939.8 178.52 1939.24C178.707 1938.65 179.013 1938.15 179.44 1937.72C179.813 1937.35 180.24 1937.07 180.72 1936.88C181.2 1936.67 181.693 1936.56 182.2 1936.56H200.2V1939.6H191.16V1964.04H187.88V1939.6H182.32ZM208.138 1964.4C206.351 1964.4 204.804 1963.93 203.498 1963C202.218 1962.04 201.231 1960.76 200.538 1959.16C199.871 1957.56 199.538 1955.83 199.538 1953.96C199.538 1951.93 199.924 1950.12 200.698 1948.52C201.471 1946.92 202.604 1945.65 204.098 1944.72C205.618 1943.79 207.431 1943.32 209.538 1943.32C210.151 1943.32 210.911 1943.36 211.818 1943.44C212.751 1943.49 213.538 1943.57 214.178 1943.68H216.858V1960.28C216.858 1960.65 216.938 1960.95 217.098 1961.16C217.284 1961.35 217.551 1961.44 217.898 1961.44C218.351 1961.44 218.711 1961.21 218.978 1960.76L221.218 1962.24C220.871 1962.91 220.364 1963.44 219.698 1963.84C219.058 1964.21 218.364 1964.4 217.618 1964.4C216.631 1964.4 215.778 1964.12 215.058 1963.56C214.364 1962.97 213.991 1962.29 213.938 1961.52V1961.56C213.484 1962.44 212.724 1963.13 211.658 1963.64C210.591 1964.15 209.418 1964.4 208.138 1964.4ZM208.378 1961.44C209.444 1961.44 210.391 1961.16 211.218 1960.6C212.044 1960.04 212.671 1959.33 213.098 1958.48C213.338 1958.03 213.471 1957.64 213.498 1957.32C213.551 1957 213.578 1956.64 213.578 1956.24V1946.56L211.898 1946.44C210.564 1946.33 209.671 1946.28 209.218 1946.28C207.191 1946.28 205.618 1947 204.498 1948.44C203.378 1949.88 202.818 1951.71 202.818 1953.92C202.818 1955.97 203.311 1957.75 204.298 1959.24C205.284 1960.71 206.644 1961.44 208.378 1961.44ZM233.018 1943.44C234.884 1943.44 236.471 1943.91 237.778 1944.84C239.111 1945.77 240.111 1947.03 240.778 1948.6C241.471 1950.15 241.818 1951.85 241.818 1953.72C241.818 1955.77 241.418 1957.61 240.618 1959.24C239.844 1960.84 238.698 1962.11 237.178 1963.04C235.684 1963.95 233.924 1964.4 231.898 1964.4C231.098 1964.4 229.738 1964.28 227.818 1964.04V1974.4H224.658V1950C224.658 1947.92 224.098 1946.4 222.978 1945.44L225.178 1943.4C225.578 1943.64 225.978 1944 226.378 1944.48C226.778 1944.93 227.111 1945.47 227.378 1946.08C228.018 1945.28 228.858 1944.64 229.898 1944.16C230.938 1943.68 231.978 1943.44 233.018 1943.44ZM231.698 1961.44C233.938 1961.44 235.631 1960.76 236.778 1959.4C237.951 1958.04 238.538 1956.23 238.538 1953.96C238.538 1951.83 238.044 1950.04 237.058 1948.6C236.071 1947.13 234.751 1946.4 233.098 1946.4C231.791 1946.4 230.604 1946.83 229.538 1947.68C228.498 1948.51 227.924 1949.57 227.818 1950.88V1961.2C229.418 1961.36 230.711 1961.44 231.698 1961.44ZM249.566 1960.44C249.566 1960.73 249.66 1960.99 249.846 1961.2C250.033 1961.39 250.273 1961.48 250.566 1961.48C250.993 1961.48 251.326 1961.24 251.566 1960.76L253.926 1962.24C253.553 1962.93 253.06 1963.48 252.446 1963.88C251.86 1964.25 251.166 1964.44 250.366 1964.44C249.113 1964.44 248.113 1964.08 247.366 1963.36C246.646 1962.61 246.286 1961.6 246.286 1960.32V1943.96H249.566V1960.44ZM247.886 1940.08C247.353 1940.08 246.873 1939.87 246.446 1939.44C246.02 1939.01 245.806 1938.53 245.806 1938C245.806 1937.44 246.02 1936.95 246.446 1936.52C246.873 1936.09 247.353 1935.88 247.886 1935.88C248.446 1935.88 248.94 1936.09 249.366 1936.52C249.82 1936.95 250.046 1937.44 250.046 1938C250.046 1938.53 249.82 1939.01 249.366 1939.44C248.94 1939.87 248.446 1940.08 247.886 1940.08ZM266.303 1947H256.823V1943.92H271.503V1945.12L261.263 1960.08L263.663 1960.92C265.076 1961.37 266.436 1961.6 267.743 1961.6C268.463 1961.6 269.089 1961.49 269.623 1961.28C270.183 1961.07 270.876 1960.65 271.703 1960.04L273.183 1962.68C272.196 1963.43 271.303 1963.95 270.503 1964.24C269.703 1964.56 268.809 1964.72 267.823 1964.72C266.329 1964.72 264.676 1964.44 262.863 1963.88L259.423 1962.76L257.703 1965.24L255.183 1963.32L266.303 1947ZM301.745 1964.88C299.052 1964.88 296.665 1964.21 294.585 1962.88C292.505 1961.52 290.892 1959.73 289.745 1957.52C288.625 1955.31 288.065 1952.95 288.065 1950.44C288.065 1947.83 288.665 1945.4 289.865 1943.16C291.065 1940.92 292.719 1939.15 294.825 1937.84C296.932 1936.51 299.279 1935.84 301.865 1935.84C303.519 1935.84 305.039 1936.12 306.425 1936.68C307.839 1937.24 308.959 1938.03 309.785 1939.04C310.612 1940.03 311.025 1941.16 311.025 1942.44C310.999 1943.67 310.599 1944.67 309.825 1945.44C309.052 1946.19 308.145 1946.56 307.105 1946.56C306.465 1946.56 305.839 1946.39 305.225 1946.04C304.639 1945.69 304.132 1945.19 303.705 1944.52L306.305 1943C306.572 1943.37 306.852 1943.56 307.145 1943.56C307.385 1943.56 307.585 1943.45 307.745 1943.24C307.932 1943 308.025 1942.71 308.025 1942.36C308.025 1941.61 307.692 1940.97 307.025 1940.44C306.359 1939.88 305.532 1939.47 304.545 1939.2C303.559 1938.93 302.585 1938.8 301.625 1938.8C299.892 1938.8 298.225 1939.31 296.625 1940.32C295.052 1941.33 293.772 1942.73 292.785 1944.52C291.825 1946.31 291.345 1948.28 291.345 1950.44C291.345 1952.55 291.812 1954.48 292.745 1956.24C293.679 1958 294.959 1959.39 296.585 1960.4C298.212 1961.41 300.012 1961.92 301.985 1961.92C303.879 1961.92 305.639 1961.47 307.265 1960.56C308.919 1959.63 310.092 1958.4 310.785 1956.88L313.505 1958.16C312.599 1960.11 311.105 1961.72 309.025 1963C306.972 1964.25 304.545 1964.88 301.745 1964.88ZM333.974 1960.44C333.974 1960.73 334.068 1960.99 334.254 1961.2C334.441 1961.39 334.681 1961.48 334.974 1961.48C335.401 1961.48 335.734 1961.24 335.974 1960.76L338.334 1962.24C337.961 1962.93 337.468 1963.48 336.854 1963.88C336.268 1964.25 335.574 1964.44 334.774 1964.44C333.521 1964.44 332.521 1964.08 331.774 1963.36C331.054 1962.61 330.694 1961.6 330.694 1960.32V1950.08C330.694 1947.55 329.401 1946.28 326.814 1946.28C325.641 1946.28 324.628 1946.57 323.774 1947.16C322.921 1947.72 322.028 1948.61 321.094 1949.84V1963.92H317.814V1934.8H321.094V1945.84C322.828 1944.11 324.828 1943.24 327.094 1943.24C329.308 1943.24 331.001 1943.83 332.174 1945C333.374 1946.17 333.974 1947.83 333.974 1949.96V1960.44ZM354.647 1961.56C354.087 1962.44 353.207 1963.12 352.007 1963.6C350.807 1964.08 349.567 1964.32 348.287 1964.32C346.261 1964.32 344.621 1963.81 343.367 1962.8C342.114 1961.76 341.461 1960.23 341.407 1958.2V1950.04C341.407 1947.96 340.847 1946.44 339.727 1945.48L341.927 1943.44C342.594 1943.81 343.207 1944.48 343.767 1945.44C344.354 1946.4 344.661 1947.43 344.687 1948.52V1957.16C344.687 1958.52 344.981 1959.56 345.567 1960.28C346.154 1961 347.127 1961.36 348.487 1961.36C349.687 1961.36 350.701 1961.08 351.527 1960.52C352.354 1959.96 353.261 1959.03 354.247 1957.72L354.287 1944H357.567V1960.28C357.567 1960.65 357.647 1960.95 357.807 1961.16C357.994 1961.35 358.261 1961.44 358.607 1961.44C359.061 1961.44 359.421 1961.21 359.687 1960.76L361.927 1962.24C361.581 1962.91 361.074 1963.44 360.407 1963.84C359.767 1964.21 359.074 1964.4 358.327 1964.4C357.341 1964.4 356.487 1964.12 355.767 1963.56C355.074 1962.97 354.701 1962.29 354.647 1961.52V1961.56ZM396.241 1962.24C395.868 1962.93 395.374 1963.48 394.761 1963.88C394.174 1964.25 393.481 1964.44 392.681 1964.44C391.428 1964.44 390.428 1964.08 389.681 1963.36C388.961 1962.61 388.601 1961.6 388.601 1960.32V1950C388.494 1948.69 388.174 1947.77 387.641 1947.24C387.108 1946.71 386.308 1946.44 385.241 1946.44C384.174 1946.44 383.214 1946.71 382.361 1947.24C381.534 1947.75 380.801 1948.63 380.161 1949.88V1964.04H376.881V1950.52C376.881 1949.21 376.601 1948.21 376.041 1947.52C375.481 1946.8 374.654 1946.44 373.561 1946.44C372.468 1946.44 371.454 1946.76 370.521 1947.4C369.588 1948.01 368.908 1948.8 368.481 1949.76V1964.04H365.201V1950C365.201 1947.92 364.641 1946.4 363.521 1945.44L365.721 1943.4C366.148 1943.64 366.574 1944.03 367.001 1944.56C367.428 1945.07 367.774 1945.65 368.041 1946.32C368.788 1945.44 369.654 1944.75 370.641 1944.24C371.628 1943.73 372.668 1943.48 373.761 1943.48C374.934 1943.48 376.014 1943.77 377.001 1944.36C377.988 1944.95 378.748 1945.73 379.281 1946.72C380.054 1945.73 380.961 1944.95 382.001 1944.36C383.041 1943.77 384.134 1943.48 385.281 1943.48C387.281 1943.48 388.881 1944.03 390.081 1945.12C391.281 1946.21 391.881 1947.81 391.881 1949.92V1960.44C391.881 1960.73 391.974 1960.99 392.161 1961.2C392.348 1961.39 392.588 1961.48 392.881 1961.48C393.308 1961.48 393.641 1961.24 393.881 1960.76L396.241 1962.24ZM408.057 1943.44C409.924 1943.44 411.51 1943.91 412.817 1944.84C414.15 1945.77 415.15 1947.03 415.817 1948.6C416.51 1950.15 416.857 1951.85 416.857 1953.72C416.857 1955.77 416.457 1957.61 415.657 1959.24C414.884 1960.84 413.737 1962.11 412.217 1963.04C410.724 1963.95 408.964 1964.4 406.937 1964.4C406.137 1964.4 404.777 1964.28 402.857 1964.04V1974.4H399.697V1950C399.697 1947.92 399.137 1946.4 398.017 1945.44L400.217 1943.4C400.617 1943.64 401.017 1944 401.417 1944.48C401.817 1944.93 402.15 1945.47 402.417 1946.08C403.057 1945.28 403.897 1944.64 404.937 1944.16C405.977 1943.68 407.017 1943.44 408.057 1943.44ZM406.737 1961.44C408.977 1961.44 410.67 1960.76 411.817 1959.4C412.99 1958.04 413.577 1956.23 413.577 1953.96C413.577 1951.83 413.084 1950.04 412.097 1948.6C411.11 1947.13 409.79 1946.4 408.137 1946.4C406.83 1946.4 405.644 1946.83 404.577 1947.68C403.537 1948.51 402.964 1949.57 402.857 1950.88V1961.2C404.457 1961.36 405.75 1961.44 406.737 1961.44ZM424.605 1960.44C424.605 1960.73 424.699 1960.99 424.885 1961.2C425.072 1961.39 425.312 1961.48 425.605 1961.48C426.032 1961.48 426.365 1961.24 426.605 1960.76L428.965 1962.24C428.592 1962.93 428.099 1963.48 427.485 1963.88C426.899 1964.25 426.205 1964.44 425.405 1964.44C424.152 1964.44 423.152 1964.08 422.405 1963.36C421.685 1962.61 421.325 1961.6 421.325 1960.32V1943.96H424.605V1960.44ZM422.925 1940.08C422.392 1940.08 421.912 1939.87 421.485 1939.44C421.059 1939.01 420.845 1938.53 420.845 1938C420.845 1937.44 421.059 1936.95 421.485 1936.52C421.912 1936.09 422.392 1935.88 422.925 1935.88C423.485 1935.88 423.979 1936.09 424.405 1936.52C424.859 1936.95 425.085 1937.44 425.085 1938C425.085 1938.53 424.859 1939.01 424.405 1939.44C423.979 1939.87 423.485 1940.08 422.925 1940.08ZM445.983 1964.36C444.943 1964.36 444.103 1964.11 443.463 1963.6C442.823 1963.07 442.41 1962.39 442.223 1961.56L444.583 1960.28C444.663 1960.63 444.797 1960.91 444.983 1961.12C445.197 1961.31 445.437 1961.4 445.703 1961.4C445.97 1961.4 446.197 1961.31 446.383 1961.12C446.57 1960.91 446.743 1960.61 446.903 1960.24L456.903 1936.48H458.263L469.983 1964.04H466.503L462.823 1955.2H452.423L449.583 1962C449.29 1962.72 448.797 1963.29 448.103 1963.72C447.41 1964.15 446.703 1964.36 445.983 1964.36ZM461.463 1952.24L457.623 1942.08L457.543 1941.48L457.503 1942.08L453.623 1952.24H461.463ZM494.549 1962.24C494.176 1962.93 493.682 1963.48 493.069 1963.88C492.482 1964.25 491.789 1964.44 490.989 1964.44C489.736 1964.44 488.736 1964.08 487.989 1963.36C487.269 1962.61 486.909 1961.6 486.909 1960.32V1950.52C486.909 1949.19 486.629 1948.17 486.069 1947.48C485.509 1946.76 484.549 1946.4 483.189 1946.4C481.962 1946.4 480.909 1946.69 480.029 1947.28C479.176 1947.87 478.296 1948.76 477.389 1949.96V1964.04H474.109V1950C474.109 1947.92 473.549 1946.4 472.429 1945.44L474.629 1943.4C475.082 1943.64 475.522 1944.04 475.949 1944.6C476.376 1945.13 476.722 1945.75 476.989 1946.44C478.642 1944.44 480.776 1943.44 483.389 1943.44C485.362 1943.44 486.962 1943.97 488.189 1945.04C489.416 1946.08 490.082 1947.56 490.189 1949.48V1960.44C490.189 1960.73 490.282 1960.99 490.469 1961.2C490.656 1961.39 490.896 1961.48 491.189 1961.48C491.616 1961.48 491.949 1961.24 492.189 1960.76L494.549 1962.24ZM504.667 1964.4C502.747 1964.4 501.12 1963.93 499.787 1963C498.453 1962.04 497.453 1960.77 496.787 1959.2C496.147 1957.6 495.827 1955.85 495.827 1953.96C495.827 1951.93 496.227 1950.12 497.027 1948.52C497.853 1946.89 499.013 1945.63 500.507 1944.72C502.027 1943.79 503.787 1943.32 505.787 1943.32C506.587 1943.32 507.947 1943.41 509.867 1943.6V1934.88H513.147V1960.28C513.147 1960.65 513.227 1960.95 513.387 1961.16C513.573 1961.35 513.84 1961.44 514.187 1961.44C514.64 1961.44 515 1961.2 515.267 1960.72L517.547 1962.2C517.2 1962.89 516.68 1963.44 515.987 1963.84C515.32 1964.21 514.6 1964.4 513.827 1964.4C512.867 1964.37 512.04 1964.08 511.347 1963.52C510.653 1962.96 510.28 1962.31 510.227 1961.56C509.72 1962.47 508.947 1963.17 507.907 1963.68C506.867 1964.16 505.787 1964.4 504.667 1964.4ZM504.667 1961.44C505.707 1961.44 506.64 1961.17 507.467 1960.64C508.293 1960.11 508.933 1959.39 509.387 1958.48C509.707 1957.79 509.867 1957.04 509.867 1956.24V1946.76C509.627 1946.73 509.187 1946.65 508.547 1946.52C507.907 1946.39 507.253 1946.32 506.587 1946.32C504.107 1946.32 502.24 1947 500.987 1948.36C499.733 1949.72 499.107 1951.51 499.107 1953.72C499.107 1955.91 499.6 1957.75 500.587 1959.24C501.6 1960.71 502.96 1961.44 504.667 1961.44ZM524.098 1960.44C524.098 1960.73 524.191 1960.99 524.378 1961.2C524.564 1961.39 524.804 1961.48 525.098 1961.48C525.524 1961.48 525.858 1961.24 526.098 1960.76L528.458 1962.24C528.084 1962.93 527.591 1963.48 526.978 1963.88C526.391 1964.25 525.698 1964.44 524.898 1964.44C523.644 1964.44 522.644 1964.08 521.898 1963.36C521.178 1962.61 520.818 1961.6 520.818 1960.32V1943.96H524.098V1960.44ZM522.418 1940.08C521.884 1940.08 521.404 1939.87 520.978 1939.44C520.551 1939.01 520.338 1938.53 520.338 1938C520.338 1937.44 520.551 1936.95 520.978 1936.52C521.404 1936.09 521.884 1935.88 522.418 1935.88C522.978 1935.88 523.471 1936.09 523.898 1936.52C524.351 1936.95 524.578 1937.44 524.578 1938C524.578 1938.53 524.351 1939.01 523.898 1939.44C523.471 1939.87 522.978 1940.08 522.418 1940.08ZM552.283 1962.24C551.91 1962.93 551.417 1963.48 550.803 1963.88C550.217 1964.25 549.523 1964.44 548.723 1964.44C547.47 1964.44 546.47 1964.08 545.723 1963.36C545.003 1962.61 544.643 1961.6 544.643 1960.32V1950.52C544.643 1949.19 544.363 1948.17 543.803 1947.48C543.243 1946.76 542.283 1946.4 540.923 1946.4C539.697 1946.4 538.643 1946.69 537.763 1947.28C536.91 1947.87 536.03 1948.76 535.123 1949.96V1964.04H531.843V1950C531.843 1947.92 531.283 1946.4 530.163 1945.44L532.363 1943.4C532.817 1943.64 533.257 1944.04 533.683 1944.6C534.11 1945.13 534.457 1945.75 534.723 1946.44C536.377 1944.44 538.51 1943.44 541.123 1943.44C543.097 1943.44 544.697 1943.97 545.923 1945.04C547.15 1946.08 547.817 1947.56 547.923 1949.48V1960.44C547.923 1960.73 548.017 1960.99 548.203 1961.2C548.39 1961.39 548.63 1961.48 548.923 1961.48C549.35 1961.48 549.683 1961.24 549.923 1960.76L552.283 1962.24ZM563.401 1964.4C561.508 1964.4 559.801 1963.95 558.281 1963.04C556.788 1962.13 555.614 1960.89 554.761 1959.32C553.908 1957.72 553.481 1955.92 553.481 1953.92C553.481 1951.92 553.908 1950.12 554.761 1948.52C555.641 1946.89 556.828 1945.63 558.321 1944.72C559.841 1943.79 561.548 1943.32 563.441 1943.32C565.334 1943.32 567.028 1943.77 568.521 1944.68C570.041 1945.59 571.228 1946.85 572.081 1948.48C572.934 1950.08 573.361 1951.88 573.361 1953.88C573.361 1955.88 572.934 1957.68 572.081 1959.28C571.228 1960.88 570.041 1962.13 568.521 1963.04C567.001 1963.95 565.294 1964.4 563.401 1964.4ZM563.441 1961.44C565.441 1961.44 567.041 1960.75 568.241 1959.36C569.468 1957.97 570.081 1956.15 570.081 1953.88C570.081 1951.59 569.468 1949.75 568.241 1948.36C567.041 1946.97 565.441 1946.28 563.441 1946.28C562.134 1946.28 560.974 1946.6 559.961 1947.24C558.948 1947.88 558.161 1948.77 557.601 1949.92C557.041 1951.07 556.761 1952.39 556.761 1953.88C556.761 1956.15 557.374 1957.97 558.601 1959.36C559.828 1960.75 561.441 1961.44 563.441 1961.44ZM590.372 1936.56H593.652V1964.04H590.372V1936.56ZM601.427 1936.56H604.707V1964.04H601.427V1936.56ZM612.482 1936.56H615.762V1964.04H612.482V1936.56ZM188.28 2014.84C186.76 2014.84 185.293 2014.55 183.88 2013.96C182.493 2013.35 181.307 2012.52 180.32 2011.48C179.333 2010.41 178.68 2009.23 178.36 2007.92L180.36 2007.08C180.787 2008.71 181.733 2010.04 183.2 2011.08C184.693 2012.12 186.387 2012.64 188.28 2012.64C189.56 2012.64 190.72 2012.36 191.76 2011.8C192.8 2011.24 193.613 2010.48 194.2 2009.52C194.813 2008.53 195.12 2007.45 195.12 2006.28C195.12 2005.35 194.92 2004.55 194.52 2003.88C194.12 2003.19 193.44 2002.53 192.48 2001.92C191.52 2001.28 190.147 2000.59 188.36 1999.84C185.747 1998.75 183.893 1997.64 182.8 1996.52C181.707 1995.37 181.16 1994 181.16 1992.4C181.16 1991.15 181.48 1990.01 182.12 1989C182.76 1987.99 183.64 1987.2 184.76 1986.64C185.907 1986.05 187.187 1985.76 188.6 1985.76C189.827 1985.76 190.933 1985.97 191.92 1986.4C192.907 1986.8 193.68 1987.37 194.24 1988.12C194.8 1988.84 195.08 1989.65 195.08 1990.56C195.08 1991.63 194.68 1992.51 193.88 1993.2C193.107 1993.89 192.147 1994.17 191 1994.04L191.16 1991.96C191.587 1992.01 191.96 1991.91 192.28 1991.64C192.6 1991.35 192.76 1990.97 192.76 1990.52C192.76 1989.83 192.347 1989.23 191.52 1988.72C190.693 1988.21 189.733 1987.96 188.64 1987.96C187.733 1987.96 186.88 1988.16 186.08 1988.56C185.307 1988.93 184.693 1989.45 184.24 1990.12C183.787 1990.79 183.56 1991.51 183.56 1992.28C183.56 1993.4 184.027 1994.4 184.96 1995.28C185.92 1996.13 187.52 1997.04 189.76 1998C192.56 1999.2 194.547 2000.44 195.72 2001.72C196.92 2002.97 197.52 2004.48 197.52 2006.24C197.52 2007.81 197.107 2009.27 196.28 2010.6C195.453 2011.91 194.333 2012.95 192.92 2013.72C191.507 2014.47 189.96 2014.84 188.28 2014.84ZM208.783 1984H211.303L202.583 2016.8H200.023L208.783 1984ZM216.881 2014.16C216.428 2014.16 216.028 2014 215.681 2013.68C215.361 2013.33 215.201 2012.93 215.201 2012.48C215.201 2012 215.361 2011.6 215.681 2011.28C216.028 2010.93 216.428 2010.76 216.881 2010.76C217.361 2010.76 217.761 2010.93 218.081 2011.28C218.428 2011.6 218.601 2012 218.601 2012.48C218.601 2012.93 218.428 2013.33 218.081 2013.68C217.761 2014 217.361 2014.16 216.881 2014.16ZM233.133 2014.76C231.293 2014.76 229.64 2014.29 228.173 2013.36C226.706 2012.4 225.56 2011.08 224.733 2009.4C223.906 2007.72 223.493 2005.83 223.493 2003.72C223.493 2001.43 224 1999.24 225.013 1997.16C226.053 1995.05 227.506 1993.23 229.373 1991.68C230.813 1990.48 232.386 1989.56 234.093 1988.92C235.826 1988.28 237.6 1987.96 239.413 1987.96L239.373 1990.16C237.8 1990.13 236.253 1990.4 234.733 1990.96C233.24 1991.52 231.866 1992.33 230.613 1993.4C229.493 1994.39 228.533 1995.55 227.733 1996.88C226.933 1998.19 226.426 1999.47 226.213 2000.72C226.853 1999.52 227.826 1998.55 229.133 1997.8C230.466 1997.03 231.853 1996.64 233.293 1996.64C234.92 1996.64 236.44 1997.05 237.853 1997.88C239.266 1998.71 240.386 1999.83 241.213 2001.24C242.04 2002.63 242.453 2004.13 242.453 2005.76C242.453 2007.41 242.04 2008.93 241.213 2010.32C240.386 2011.68 239.253 2012.76 237.813 2013.56C236.4 2014.36 234.84 2014.76 233.133 2014.76ZM233.173 2012.52C234.426 2012.52 235.573 2012.21 236.613 2011.6C237.68 2010.99 238.52 2010.16 239.133 2009.12C239.746 2008.08 240.053 2006.95 240.053 2005.72C240.053 2004.49 239.746 2003.36 239.133 2002.32C238.52 2001.28 237.693 2000.45 236.653 1999.84C235.613 1999.2 234.48 1998.88 233.253 1998.88C231.946 1998.88 230.76 1999.19 229.693 1999.8C228.626 2000.41 227.786 2001.25 227.173 2002.32C226.586 2003.36 226.293 2004.52 226.293 2005.8C226.293 2007.03 226.6 2008.16 227.213 2009.2C227.853 2010.21 228.693 2011.03 229.733 2011.64C230.8 2012.23 231.946 2012.52 233.173 2012.52ZM257.267 2014.4C255 2014.4 253.053 2013.79 251.427 2012.56C249.8 2011.33 248.56 2009.71 247.707 2007.68C246.853 2005.65 246.427 2003.47 246.427 2001.12C246.427 1998.77 246.853 1996.59 247.707 1994.56C248.56 1992.53 249.8 1990.92 251.427 1989.72C253.08 1988.49 255.027 1987.88 257.267 1987.88C259.507 1987.88 261.44 1988.51 263.067 1989.76C264.72 1990.99 265.973 1992.61 266.827 1994.64C267.68 1996.67 268.107 1998.87 268.107 2001.24C268.107 2003.61 267.667 2005.8 266.787 2007.8C265.933 2009.8 264.68 2011.4 263.027 2012.6C261.4 2013.8 259.48 2014.4 257.267 2014.4ZM257.347 2012.16C259.16 2012.16 260.693 2011.64 261.947 2010.6C263.2 2009.53 264.133 2008.16 264.747 2006.48C265.387 2004.77 265.707 2002.97 265.707 2001.08C265.707 1999.13 265.373 1997.33 264.707 1995.68C264.067 1994 263.107 1992.65 261.827 1991.64C260.573 1990.63 259.067 1990.12 257.307 1990.12C255.52 1990.12 253.987 1990.64 252.707 1991.68C251.427 1992.69 250.453 1994.04 249.787 1995.72C249.147 1997.4 248.827 1999.2 248.827 2001.12C248.827 2003.04 249.16 2004.85 249.827 2006.56C250.493 2008.24 251.467 2009.6 252.747 2010.64C254.027 2011.65 255.56 2012.16 257.347 2012.16ZM283.36 2014.4C281.094 2014.4 279.147 2013.79 277.52 2012.56C275.894 2011.33 274.654 2009.71 273.8 2007.68C272.947 2005.65 272.52 2003.47 272.52 2001.12C272.52 1998.77 272.947 1996.59 273.8 1994.56C274.654 1992.53 275.894 1990.92 277.52 1989.72C279.174 1988.49 281.12 1987.88 283.36 1987.88C285.6 1987.88 287.534 1988.51 289.16 1989.76C290.814 1990.99 292.067 1992.61 292.92 1994.64C293.774 1996.67 294.2 1998.87 294.2 2001.24C294.2 2003.61 293.76 2005.8 292.88 2007.8C292.027 2009.8 290.774 2011.4 289.12 2012.6C287.494 2013.8 285.574 2014.4 283.36 2014.4ZM283.44 2012.16C285.254 2012.16 286.787 2011.64 288.04 2010.6C289.294 2009.53 290.227 2008.16 290.84 2006.48C291.48 2004.77 291.8 2002.97 291.8 2001.08C291.8 1999.13 291.467 1997.33 290.8 1995.68C290.16 1994 289.2 1992.65 287.92 1991.64C286.667 1990.63 285.16 1990.12 283.4 1990.12C281.614 1990.12 280.08 1990.64 278.8 1991.68C277.52 1992.69 276.547 1994.04 275.88 1995.72C275.24 1997.4 274.92 1999.2 274.92 2001.12C274.92 2003.04 275.254 2004.85 275.92 2006.56C276.587 2008.24 277.56 2009.6 278.84 2010.64C280.12 2011.65 281.654 2012.16 283.44 2012.16ZM181.96 2038.88C181.533 2038.88 181.2 2039.03 180.96 2039.32C180.72 2039.59 180.6 2039.89 180.6 2040.24H178.32C178.32 2039.25 178.667 2038.41 179.36 2037.72C180.08 2037 180.907 2036.64 181.84 2036.64H199.96V2038.88H190.6V2064H188.2V2038.88H181.96ZM208.103 2064.4C206.263 2064.4 204.69 2063.93 203.383 2063C202.076 2062.07 201.09 2060.83 200.423 2059.28C199.756 2057.73 199.423 2056.03 199.423 2054.16C199.423 2052.11 199.823 2050.29 200.623 2048.72C201.423 2047.12 202.57 2045.88 204.063 2045C205.556 2044.12 207.303 2043.68 209.303 2043.68C209.916 2043.68 210.69 2043.72 211.623 2043.8C212.556 2043.85 213.383 2043.93 214.103 2044.04H216.503V2060.56C216.503 2061.09 216.623 2061.51 216.863 2061.8C217.13 2062.07 217.45 2062.2 217.823 2062.2C218.303 2062.2 218.69 2061.97 218.983 2061.52L220.703 2062.88C220.303 2063.44 219.85 2063.83 219.343 2064.04C218.863 2064.28 218.303 2064.4 217.663 2064.4C216.73 2064.4 215.903 2064.08 215.183 2063.44C214.49 2062.8 214.143 2062.03 214.143 2061.12C213.503 2062.19 212.663 2063 211.623 2063.56C210.583 2064.12 209.41 2064.4 208.103 2064.4ZM208.143 2062.24C209.343 2062.24 210.423 2061.95 211.383 2061.36C212.343 2060.77 213.063 2060 213.543 2059.04C213.916 2058.27 214.103 2057.41 214.103 2056.48V2046L211.463 2045.92L209.143 2045.84C206.716 2045.84 204.89 2046.6 203.663 2048.12C202.436 2049.64 201.823 2051.63 201.823 2054.08C201.823 2056.35 202.356 2058.28 203.423 2059.88C204.516 2061.45 206.09 2062.24 208.143 2062.24ZM226.619 2060.64C226.619 2061.01 226.739 2061.33 226.979 2061.6C227.245 2061.84 227.552 2061.96 227.899 2061.96C228.432 2061.96 228.819 2061.73 229.059 2061.28L230.819 2062.6C230.605 2063.05 230.232 2063.44 229.699 2063.76C229.165 2064.05 228.565 2064.2 227.899 2064.2C226.832 2064.2 225.952 2063.87 225.259 2063.2C224.565 2062.53 224.219 2061.67 224.219 2060.6V2034.96H226.619V2060.64ZM236.736 2060.64C236.736 2061.01 236.856 2061.33 237.096 2061.6C237.363 2061.84 237.669 2061.96 238.016 2061.96C238.549 2061.96 238.936 2061.73 239.176 2061.28L240.936 2062.6C240.723 2063.05 240.349 2063.44 239.816 2063.76C239.283 2064.05 238.683 2064.2 238.016 2064.2C236.949 2064.2 236.069 2063.87 235.376 2063.2C234.683 2062.53 234.336 2061.67 234.336 2060.6V2034.96H236.736V2060.64ZM251.672 2064.4C249.672 2064.4 247.979 2063.99 246.592 2063.16C245.205 2062.33 244.152 2061.2 243.432 2059.76C242.739 2058.29 242.392 2056.64 242.392 2054.8C242.392 2052.99 242.725 2051.23 243.392 2049.52C244.085 2047.81 245.112 2046.41 246.472 2045.32C247.859 2044.23 249.539 2043.68 251.512 2043.68C252.819 2043.68 254.032 2043.93 255.152 2044.44C256.272 2044.95 257.152 2045.67 257.792 2046.6C258.459 2047.53 258.792 2048.61 258.792 2049.84C258.792 2051.81 257.952 2053.35 256.272 2054.44C254.592 2055.51 252.272 2056.03 249.312 2056L244.912 2055.96C245.152 2058.01 245.832 2059.57 246.952 2060.64C248.099 2061.71 249.672 2062.24 251.672 2062.24C252.872 2062.24 253.979 2062.08 254.992 2061.76C256.032 2061.41 257.032 2060.89 257.992 2060.2L259.192 2061.8C258.179 2062.6 257.019 2063.24 255.712 2063.72C254.432 2064.17 253.085 2064.4 251.672 2064.4ZM249.832 2053.92C254.205 2053.92 256.392 2052.55 256.392 2049.8C256.392 2048.47 255.925 2047.48 254.992 2046.84C254.085 2046.17 252.965 2045.84 251.632 2045.84C250.139 2045.84 248.872 2046.27 247.832 2047.12C246.819 2047.97 246.059 2049.03 245.552 2050.28C245.045 2051.53 244.792 2052.75 244.792 2053.92H249.832ZM271.953 2043.6C272.753 2043.6 273.553 2043.72 274.353 2043.96V2046.2C273.579 2046.01 272.806 2045.92 272.033 2045.92C270.673 2045.92 269.566 2046.25 268.713 2046.92C267.859 2047.59 267.099 2048.53 266.433 2049.76V2064H264.033V2050C264.033 2047.89 263.473 2046.35 262.353 2045.36L263.953 2043.76C264.433 2044.05 264.886 2044.49 265.313 2045.08C265.739 2045.67 266.046 2046.32 266.233 2047.04C266.979 2045.81 267.726 2044.97 268.473 2044.52C269.406 2043.91 270.566 2043.6 271.953 2043.6ZM291.091 2064.52C290.238 2064.52 289.505 2064.29 288.891 2063.84C288.305 2063.39 287.918 2062.8 287.731 2062.08L289.571 2061.08C289.705 2061.43 289.891 2061.72 290.131 2061.96C290.398 2062.17 290.705 2062.28 291.051 2062.28C291.371 2062.28 291.625 2062.17 291.811 2061.96C292.025 2061.75 292.238 2061.39 292.451 2060.88L302.691 2036.28H303.491L315.131 2064H312.571L308.771 2054.92H297.371L294.371 2062.36C294.105 2063.03 293.665 2063.56 293.051 2063.96C292.438 2064.33 291.785 2064.52 291.091 2064.52ZM307.811 2052.68L303.491 2041.92L303.051 2040.32L302.651 2041.92L298.331 2052.68H307.811ZM316.981 2047.36C316.821 2046.88 316.554 2046.43 316.181 2046C315.808 2045.55 315.434 2045.21 315.061 2045L316.181 2043.32C317.648 2044.31 318.688 2045.76 319.301 2047.68L323.541 2060.52L328.941 2044H331.181L336.581 2060.52L341.981 2044H344.221L337.701 2063.96H335.461L330.061 2047.44L324.661 2063.96H322.381L316.981 2047.36ZM355.447 2064.4C353.607 2064.4 352.034 2063.93 350.727 2063C349.42 2062.07 348.434 2060.83 347.767 2059.28C347.1 2057.73 346.767 2056.03 346.767 2054.16C346.767 2052.11 347.167 2050.29 347.967 2048.72C348.767 2047.12 349.914 2045.88 351.407 2045C352.9 2044.12 354.647 2043.68 356.647 2043.68C357.26 2043.68 358.034 2043.72 358.967 2043.8C359.9 2043.85 360.727 2043.93 361.447 2044.04H363.847V2060.56C363.847 2061.09 363.967 2061.51 364.207 2061.8C364.474 2062.07 364.794 2062.2 365.167 2062.2C365.647 2062.2 366.034 2061.97 366.327 2061.52L368.047 2062.88C367.647 2063.44 367.194 2063.83 366.687 2064.04C366.207 2064.28 365.647 2064.4 365.007 2064.4C364.074 2064.4 363.247 2064.08 362.527 2063.44C361.834 2062.8 361.487 2062.03 361.487 2061.12C360.847 2062.19 360.007 2063 358.967 2063.56C357.927 2064.12 356.754 2064.4 355.447 2064.4ZM355.487 2062.24C356.687 2062.24 357.767 2061.95 358.727 2061.36C359.687 2060.77 360.407 2060 360.887 2059.04C361.26 2058.27 361.447 2057.41 361.447 2056.48V2046L358.807 2045.92L356.487 2045.84C354.06 2045.84 352.234 2046.6 351.007 2048.12C349.78 2049.64 349.167 2051.63 349.167 2054.08C349.167 2056.35 349.7 2058.28 350.767 2059.88C351.86 2061.45 353.434 2062.24 355.487 2062.24ZM384.141 2061.44C383.528 2062.43 382.688 2063.17 381.621 2063.68C380.581 2064.16 379.421 2064.4 378.141 2064.4C376.355 2064.4 374.808 2063.95 373.501 2063.04C372.195 2062.11 371.195 2060.87 370.501 2059.32C369.835 2057.75 369.501 2056 369.501 2054.08C369.501 2050.93 370.395 2048.41 372.181 2046.52C373.995 2044.63 376.595 2043.68 379.981 2043.68C380.915 2043.68 382.008 2043.75 383.261 2043.88C384.515 2044.01 385.608 2044.21 386.541 2044.48V2074.44H384.141V2061.44ZM378.101 2062.24C379.648 2062.24 380.995 2061.77 382.141 2060.84C383.315 2059.91 383.981 2058.69 384.141 2057.2V2046.16C382.701 2045.92 381.368 2045.8 380.141 2045.8C374.648 2045.8 371.901 2048.48 371.901 2053.84C371.901 2056.35 372.435 2058.37 373.501 2059.92C374.595 2061.47 376.128 2062.24 378.101 2062.24ZM405.466 2064.52C404.613 2064.52 403.88 2064.29 403.266 2063.84C402.68 2063.39 402.293 2062.8 402.106 2062.08L403.946 2061.08C404.08 2061.43 404.266 2061.72 404.506 2061.96C404.773 2062.17 405.08 2062.28 405.426 2062.28C405.746 2062.28 406 2062.17 406.186 2061.96C406.4 2061.75 406.613 2061.39 406.826 2060.88L417.066 2036.28H417.866L429.506 2064H426.946L423.146 2054.92H411.746L408.746 2062.36C408.48 2063.03 408.04 2063.56 407.426 2063.96C406.813 2064.33 406.16 2064.52 405.466 2064.52ZM422.186 2052.68L417.866 2041.92L417.426 2040.32L417.026 2041.92L412.706 2052.68H422.186ZM448.807 2044L448.767 2058.48V2068.56C448.767 2070.61 448.22 2072.25 447.127 2073.48C446.034 2074.73 444.58 2075.36 442.767 2075.36C441.647 2075.36 440.62 2075.08 439.687 2074.52C438.78 2073.99 438.06 2073.24 437.527 2072.28C437.02 2071.32 436.767 2070.24 436.767 2069.04C436.767 2067.95 436.967 2066.97 437.367 2066.12C437.794 2065.27 438.367 2064.65 439.087 2064.28C437.3 2064.15 435.874 2063.56 434.807 2062.52C433.74 2061.45 433.207 2060.09 433.207 2058.44V2049.76C433.207 2047.65 432.647 2046.11 431.527 2045.12L433.127 2043.52C433.74 2043.92 434.3 2044.53 434.807 2045.36C435.314 2046.19 435.58 2047.08 435.607 2048.04V2057.4C435.607 2058.97 435.954 2060.15 436.647 2060.92C437.367 2061.69 438.447 2062.08 439.887 2062.08C441.06 2062.08 442.1 2061.83 443.007 2061.32C443.94 2060.81 444.874 2059.99 445.807 2058.84C446.02 2058.55 446.167 2058.29 446.247 2058.08C446.327 2057.84 446.367 2057.52 446.367 2057.12L446.407 2044H448.807ZM446.447 2060.88C446.1 2061.44 445.78 2061.88 445.487 2062.2C445.194 2062.49 444.847 2062.8 444.447 2063.12C443.727 2063.63 442.927 2064.12 442.047 2064.6C440.98 2065.16 440.22 2065.77 439.767 2066.44C439.314 2067.11 439.087 2067.95 439.087 2068.96C439.087 2070.21 439.407 2071.2 440.047 2071.92C440.714 2072.67 441.607 2073.04 442.727 2073.04C443.82 2073.04 444.687 2072.65 445.327 2071.88C445.994 2071.11 446.34 2070.05 446.367 2068.72L446.447 2060.88ZM457.361 2060.64C457.361 2061.01 457.481 2061.33 457.721 2061.6C457.988 2061.84 458.294 2061.96 458.641 2061.96C459.174 2061.96 459.561 2061.73 459.801 2061.28L461.561 2062.6C461.348 2063.05 460.974 2063.44 460.441 2063.76C459.908 2064.05 459.308 2064.2 458.641 2064.2C457.574 2064.2 456.694 2063.87 456.001 2063.2C455.308 2062.53 454.961 2061.67 454.961 2060.6V2034.96H457.361V2060.64ZM467.478 2060.64C467.478 2061.01 467.598 2061.33 467.838 2061.6C468.105 2061.84 468.411 2061.96 468.758 2061.96C469.291 2061.96 469.678 2061.73 469.918 2061.28L471.678 2062.6C471.465 2063.05 471.091 2063.44 470.558 2063.76C470.025 2064.05 469.425 2064.2 468.758 2064.2C467.691 2064.2 466.811 2063.87 466.118 2063.2C465.425 2062.53 465.078 2061.67 465.078 2060.6V2034.96H467.478V2060.64ZM494.805 2062.88C494.405 2063.44 493.951 2063.83 493.445 2064.04C492.965 2064.28 492.405 2064.4 491.765 2064.4C490.831 2064.4 490.005 2064.08 489.285 2063.44C488.591 2062.8 488.245 2062.03 488.245 2061.12C486.405 2063.25 484.178 2064.32 481.565 2064.32C479.565 2064.32 478.005 2063.84 476.885 2062.88C475.765 2061.89 475.151 2060.41 475.045 2058.44V2049.88C475.045 2047.77 474.485 2046.23 473.365 2045.24L474.965 2043.64C475.605 2044.04 476.178 2044.67 476.685 2045.52C477.191 2046.37 477.445 2047.29 477.445 2048.28V2057.4C477.445 2058.92 477.778 2060.09 478.445 2060.92C479.138 2061.75 480.258 2062.16 481.805 2062.16C483.271 2062.16 484.525 2061.84 485.565 2061.2C486.631 2060.56 487.511 2059.55 488.205 2058.16L488.245 2044H490.645L490.605 2060.56C490.605 2061.09 490.725 2061.51 490.965 2061.8C491.231 2062.07 491.551 2062.2 491.925 2062.2C492.405 2062.2 492.791 2061.97 493.085 2061.52L494.805 2062.88ZM504.04 2064.48C501.347 2064.48 498.84 2063.44 496.52 2061.36L497.84 2059.76C498.854 2060.59 499.854 2061.23 500.84 2061.68C501.854 2062.11 502.934 2062.32 504.08 2062.32C505.52 2062.32 506.64 2061.99 507.44 2061.32C508.267 2060.63 508.68 2059.69 508.68 2058.52C508.68 2057.77 508.494 2057.17 508.12 2056.72C507.774 2056.24 507.294 2055.85 506.68 2055.56C506.094 2055.27 505.027 2054.8 503.48 2054.16C502.067 2053.57 500.974 2053.07 500.2 2052.64C499.427 2052.21 498.814 2051.69 498.36 2051.08C497.907 2050.44 497.68 2049.64 497.68 2048.68C497.68 2047.11 498.24 2045.85 499.36 2044.92C500.48 2043.96 501.974 2043.48 503.84 2043.48C504.8 2043.48 505.747 2043.61 506.68 2043.88C507.64 2044.15 508.454 2044.53 509.12 2045.04L508.12 2046.76C506.894 2046.01 505.507 2045.64 503.96 2045.64C502.734 2045.64 501.787 2045.88 501.12 2046.36C500.454 2046.84 500.12 2047.52 500.12 2048.4C500.12 2049.07 500.294 2049.61 500.64 2050.04C501.014 2050.47 501.48 2050.83 502.04 2051.12C502.627 2051.39 503.587 2051.79 504.92 2052.32C506.44 2052.93 507.614 2053.49 508.44 2054C509.294 2054.48 509.947 2055.08 510.4 2055.8C510.88 2056.49 511.12 2057.36 511.12 2058.4C511.12 2060.24 510.467 2061.72 509.16 2062.84C507.88 2063.93 506.174 2064.48 504.04 2064.48Z" fill="white"/>
<path d="M810.8 1964.88C808.107 1964.88 805.72 1964.21 803.64 1962.88C801.56 1961.52 799.947 1959.73 798.8 1957.52C797.68 1955.31 797.12 1952.95 797.12 1950.44C797.12 1947.83 797.72 1945.4 798.92 1943.16C800.12 1940.92 801.773 1939.15 803.88 1937.84C805.987 1936.51 808.333 1935.84 810.92 1935.84C812.573 1935.84 814.093 1936.12 815.48 1936.68C816.893 1937.24 818.013 1938.03 818.84 1939.04C819.667 1940.03 820.08 1941.16 820.08 1942.44C820.053 1943.67 819.653 1944.67 818.88 1945.44C818.107 1946.19 817.2 1946.56 816.16 1946.56C815.52 1946.56 814.893 1946.39 814.28 1946.04C813.693 1945.69 813.187 1945.19 812.76 1944.52L815.36 1943C815.627 1943.37 815.907 1943.56 816.2 1943.56C816.44 1943.56 816.64 1943.45 816.8 1943.24C816.987 1943 817.08 1942.71 817.08 1942.36C817.08 1941.61 816.747 1940.97 816.08 1940.44C815.413 1939.88 814.587 1939.47 813.6 1939.2C812.613 1938.93 811.64 1938.8 810.68 1938.8C808.947 1938.8 807.28 1939.31 805.68 1940.32C804.107 1941.33 802.827 1942.73 801.84 1944.52C800.88 1946.31 800.4 1948.28 800.4 1950.44C800.4 1952.55 800.867 1954.48 801.8 1956.24C802.733 1958 804.013 1959.39 805.64 1960.4C807.267 1961.41 809.067 1961.92 811.04 1961.92C812.933 1961.92 814.693 1961.47 816.32 1960.56C817.973 1959.63 819.147 1958.4 819.84 1956.88L822.56 1958.16C821.653 1960.11 820.16 1961.72 818.08 1963C816.027 1964.25 813.6 1964.88 810.8 1964.88ZM833.598 1964.4C831.812 1964.4 830.265 1963.93 828.958 1963C827.678 1962.04 826.692 1960.76 825.998 1959.16C825.332 1957.56 824.998 1955.83 824.998 1953.96C824.998 1951.93 825.385 1950.12 826.158 1948.52C826.932 1946.92 828.065 1945.65 829.558 1944.72C831.078 1943.79 832.892 1943.32 834.998 1943.32C835.612 1943.32 836.372 1943.36 837.278 1943.44C838.212 1943.49 838.998 1943.57 839.638 1943.68H842.318V1960.28C842.318 1960.65 842.398 1960.95 842.558 1961.16C842.745 1961.35 843.012 1961.44 843.358 1961.44C843.812 1961.44 844.172 1961.21 844.438 1960.76L846.678 1962.24C846.332 1962.91 845.825 1963.44 845.158 1963.84C844.518 1964.21 843.825 1964.4 843.078 1964.4C842.092 1964.4 841.238 1964.12 840.518 1963.56C839.825 1962.97 839.452 1962.29 839.398 1961.52V1961.56C838.945 1962.44 838.185 1963.13 837.118 1963.64C836.052 1964.15 834.878 1964.4 833.598 1964.4ZM833.838 1961.44C834.905 1961.44 835.852 1961.16 836.678 1960.6C837.505 1960.04 838.132 1959.33 838.558 1958.48C838.798 1958.03 838.932 1957.64 838.958 1957.32C839.012 1957 839.038 1956.64 839.038 1956.24V1946.56L837.358 1946.44C836.025 1946.33 835.132 1946.28 834.678 1946.28C832.652 1946.28 831.078 1947 829.958 1948.44C828.838 1949.88 828.278 1951.71 828.278 1953.92C828.278 1955.97 828.772 1957.75 829.758 1959.24C830.745 1960.71 832.105 1961.44 833.838 1961.44ZM858.279 1943.32C859.052 1943.32 859.972 1943.45 861.039 1943.72L860.959 1946.88C859.892 1946.59 859.025 1946.44 858.359 1946.44C857.105 1946.44 856.132 1946.73 855.439 1947.32C854.639 1947.96 853.945 1948.81 853.359 1949.88V1964.04H850.079V1949.88C850.079 1947.8 849.519 1946.28 848.399 1945.32L850.599 1943.28C850.999 1943.52 851.399 1943.88 851.799 1944.36C852.225 1944.84 852.572 1945.39 852.839 1946C853.425 1945.25 854.025 1944.68 854.639 1944.28C855.652 1943.64 856.865 1943.32 858.279 1943.32ZM870.118 1964.4C868.251 1964.4 866.838 1963.84 865.878 1962.72C864.944 1961.57 864.478 1959.99 864.478 1957.96V1938.84H867.758V1944H873.878V1946.96H867.758V1957.96C867.758 1958.92 867.958 1959.73 868.358 1960.4C868.758 1961.04 869.344 1961.36 870.118 1961.36C870.891 1961.36 871.544 1961.15 872.078 1960.72C872.611 1960.27 873.024 1959.67 873.318 1958.92L875.878 1960.56C874.598 1963.12 872.678 1964.4 870.118 1964.4ZM892.882 1961.56C892.322 1962.44 891.442 1963.12 890.242 1963.6C889.042 1964.08 887.802 1964.32 886.522 1964.32C884.495 1964.32 882.855 1963.81 881.602 1962.8C880.348 1961.76 879.695 1960.23 879.642 1958.2V1950.04C879.642 1947.96 879.082 1946.44 877.962 1945.48L880.162 1943.44C880.828 1943.81 881.442 1944.48 882.002 1945.44C882.588 1946.4 882.895 1947.43 882.922 1948.52V1957.16C882.922 1958.52 883.215 1959.56 883.802 1960.28C884.388 1961 885.362 1961.36 886.722 1961.36C887.922 1961.36 888.935 1961.08 889.762 1960.52C890.588 1959.96 891.495 1959.03 892.482 1957.72L892.522 1944H895.802V1960.28C895.802 1960.65 895.882 1960.95 896.042 1961.16C896.228 1961.35 896.495 1961.44 896.842 1961.44C897.295 1961.44 897.655 1961.21 897.922 1960.76L900.162 1962.24C899.815 1962.91 899.308 1963.44 898.642 1963.84C898.002 1964.21 897.308 1964.4 896.562 1964.4C895.575 1964.4 894.722 1964.12 894.002 1963.56C893.308 1962.97 892.935 1962.29 892.882 1961.52V1961.56ZM911.125 1964.24C908.085 1964.24 905.711 1963.36 904.005 1961.6C902.298 1959.84 901.445 1957.4 901.445 1954.28C901.445 1952.15 901.831 1950.25 902.605 1948.6C903.405 1946.92 904.511 1945.63 905.925 1944.72C907.338 1943.79 908.965 1943.32 910.805 1943.32C912.271 1943.32 913.591 1943.63 914.765 1944.24C915.965 1944.83 916.871 1945.64 917.485 1946.68C918.125 1947.72 918.391 1948.87 918.285 1950.12H915.085C915.191 1949.03 914.858 1948.12 914.085 1947.4C913.311 1946.65 912.271 1946.28 910.965 1946.28C909.738 1946.28 908.645 1946.61 907.685 1947.28C906.751 1947.95 906.018 1948.89 905.485 1950.12C904.978 1951.35 904.725 1952.75 904.725 1954.32C904.725 1956.56 905.271 1958.28 906.365 1959.48C907.485 1960.68 909.071 1961.28 911.125 1961.28C912.031 1961.28 912.951 1961.12 913.885 1960.8C914.818 1960.48 915.991 1959.93 917.405 1959.16L918.925 1961.64C916.578 1963.37 913.978 1964.24 911.125 1964.24ZM939.279 1960.44C939.279 1960.73 939.372 1960.99 939.559 1961.2C939.746 1961.39 939.986 1961.48 940.279 1961.48C940.706 1961.48 941.039 1961.24 941.279 1960.76L943.639 1962.24C943.266 1962.93 942.772 1963.48 942.159 1963.88C941.572 1964.25 940.879 1964.44 940.079 1964.44C938.826 1964.44 937.826 1964.08 937.079 1963.36C936.359 1962.61 935.999 1961.6 935.999 1960.32V1950.08C935.999 1947.55 934.706 1946.28 932.119 1946.28C930.946 1946.28 929.932 1946.57 929.079 1947.16C928.226 1947.72 927.332 1948.61 926.399 1949.84V1963.92H923.119V1934.8H926.399V1945.84C928.132 1944.11 930.132 1943.24 932.399 1943.24C934.612 1943.24 936.306 1943.83 937.479 1945C938.679 1946.17 939.279 1947.83 939.279 1949.96V1960.44ZM954.201 1964.4C952.228 1964.4 950.535 1963.97 949.121 1963.12C947.735 1962.24 946.681 1961.07 945.961 1959.6C945.241 1958.11 944.881 1956.44 944.881 1954.6C944.881 1952.79 945.228 1951.03 945.921 1949.32C946.615 1947.61 947.655 1946.2 949.041 1945.08C950.428 1943.96 952.135 1943.4 954.161 1943.4C955.495 1943.4 956.735 1943.67 957.881 1944.2C959.028 1944.71 959.935 1945.45 960.601 1946.44C961.295 1947.4 961.641 1948.52 961.641 1949.8C961.641 1951.85 960.801 1953.47 959.121 1954.64C957.441 1955.81 955.255 1956.37 952.561 1956.32L948.401 1956.24C948.695 1957.89 949.335 1959.17 950.321 1960.08C951.335 1960.96 952.668 1961.4 954.321 1961.4C956.481 1961.4 958.535 1960.68 960.481 1959.24L962.281 1961.52C959.748 1963.44 957.055 1964.4 954.201 1964.4ZM952.561 1953.44C954.348 1953.44 955.761 1953.13 956.801 1952.52C957.841 1951.91 958.361 1950.99 958.361 1949.76C958.361 1948.67 957.961 1947.83 957.161 1947.24C956.388 1946.65 955.455 1946.36 954.361 1946.36C953.135 1946.36 952.068 1946.73 951.161 1947.48C950.255 1948.2 949.561 1949.11 949.081 1950.2C948.601 1951.29 948.321 1952.37 948.241 1953.44H952.561ZM975.154 1943.32C975.927 1943.32 976.847 1943.45 977.914 1943.72L977.834 1946.88C976.767 1946.59 975.9 1946.44 975.234 1946.44C973.98 1946.44 973.007 1946.73 972.314 1947.32C971.514 1947.96 970.82 1948.81 970.234 1949.88V1964.04H966.954V1949.88C966.954 1947.8 966.394 1946.28 965.274 1945.32L967.474 1943.28C967.874 1943.52 968.274 1943.88 968.674 1944.36C969.1 1944.84 969.447 1945.39 969.714 1946C970.3 1945.25 970.9 1944.68 971.514 1944.28C972.527 1943.64 973.74 1943.32 975.154 1943.32ZM988.052 1964.4C986.265 1964.4 984.718 1963.93 983.412 1963C982.132 1962.04 981.145 1960.76 980.452 1959.16C979.785 1957.56 979.452 1955.83 979.452 1953.96C979.452 1951.93 979.838 1950.12 980.612 1948.52C981.385 1946.92 982.518 1945.65 984.012 1944.72C985.532 1943.79 987.345 1943.32 989.452 1943.32C990.065 1943.32 990.825 1943.36 991.732 1943.44C992.665 1943.49 993.452 1943.57 994.092 1943.68H996.772V1960.28C996.772 1960.65 996.852 1960.95 997.012 1961.16C997.198 1961.35 997.465 1961.44 997.812 1961.44C998.265 1961.44 998.625 1961.21 998.892 1960.76L1001.13 1962.24C1000.78 1962.91 1000.28 1963.44 999.612 1963.84C998.972 1964.21 998.278 1964.4 997.532 1964.4C996.545 1964.4 995.692 1964.12 994.972 1963.56C994.278 1962.97 993.905 1962.29 993.852 1961.52V1961.56C993.398 1962.44 992.638 1963.13 991.572 1963.64C990.505 1964.15 989.332 1964.4 988.052 1964.4ZM988.292 1961.44C989.358 1961.44 990.305 1961.16 991.132 1960.6C991.958 1960.04 992.585 1959.33 993.012 1958.48C993.252 1958.03 993.385 1957.64 993.412 1957.32C993.465 1957 993.492 1956.64 993.492 1956.24V1946.56L991.812 1946.44C990.478 1946.33 989.585 1946.28 989.132 1946.28C987.105 1946.28 985.532 1947 984.412 1948.44C983.292 1949.88 982.732 1951.71 982.732 1953.92C982.732 1955.97 983.225 1957.75 984.212 1959.24C985.198 1960.71 986.558 1961.44 988.292 1961.44ZM1019.36 1939.72C1018.67 1939.72 1018.19 1939.84 1017.92 1940.08C1017.6 1940.32 1017.44 1940.76 1017.44 1941.4H1014.44C1014.39 1939.77 1014.87 1938.53 1015.88 1937.68C1016.68 1936.96 1017.86 1936.6 1019.4 1936.6H1037.32V1939.64H1022.68V1948H1032.68V1951.08H1022.68V1964.04H1019.4L1019.36 1939.72ZM1044.83 1960.44C1044.83 1960.73 1044.93 1960.99 1045.11 1961.2C1045.3 1961.39 1045.54 1961.48 1045.83 1961.48C1046.26 1961.48 1046.59 1961.24 1046.83 1960.76L1049.19 1962.24C1048.82 1962.93 1048.33 1963.48 1047.71 1963.88C1047.13 1964.25 1046.43 1964.44 1045.63 1964.44C1044.38 1964.44 1043.38 1964.08 1042.63 1963.36C1041.91 1962.61 1041.55 1961.6 1041.55 1960.32V1934.92H1044.83V1960.44ZM1060.31 1964.4C1058.41 1964.4 1056.71 1963.95 1055.19 1963.04C1053.69 1962.13 1052.52 1960.89 1051.67 1959.32C1050.81 1957.72 1050.39 1955.92 1050.39 1953.92C1050.39 1951.92 1050.81 1950.12 1051.67 1948.52C1052.55 1946.89 1053.73 1945.63 1055.23 1944.72C1056.75 1943.79 1058.45 1943.32 1060.35 1943.32C1062.24 1943.32 1063.93 1943.77 1065.43 1944.68C1066.95 1945.59 1068.13 1946.85 1068.99 1948.48C1069.84 1950.08 1070.27 1951.88 1070.27 1953.88C1070.27 1955.88 1069.84 1957.68 1068.99 1959.28C1068.13 1960.88 1066.95 1962.13 1065.43 1963.04C1063.91 1963.95 1062.2 1964.4 1060.31 1964.4ZM1060.35 1961.44C1062.35 1961.44 1063.95 1960.75 1065.15 1959.36C1066.37 1957.97 1066.99 1956.15 1066.99 1953.88C1066.99 1951.59 1066.37 1949.75 1065.15 1948.36C1063.95 1946.97 1062.35 1946.28 1060.35 1946.28C1059.04 1946.28 1057.88 1946.6 1056.87 1947.24C1055.85 1947.88 1055.07 1948.77 1054.51 1949.92C1053.95 1951.07 1053.67 1952.39 1053.67 1953.88C1053.67 1956.15 1054.28 1957.97 1055.51 1959.36C1056.73 1960.75 1058.35 1961.44 1060.35 1961.44ZM1082.97 1943.32C1083.74 1943.32 1084.66 1943.45 1085.73 1943.72L1085.65 1946.88C1084.58 1946.59 1083.71 1946.44 1083.05 1946.44C1081.79 1946.44 1080.82 1946.73 1080.13 1947.32C1079.33 1947.96 1078.63 1948.81 1078.05 1949.88V1964.04H1074.77V1949.88C1074.77 1947.8 1074.21 1946.28 1073.09 1945.32L1075.29 1943.28C1075.69 1943.52 1076.09 1943.88 1076.49 1944.36C1076.91 1944.84 1077.26 1945.39 1077.53 1946C1078.11 1945.25 1078.71 1944.68 1079.33 1944.28C1080.34 1943.64 1081.55 1943.32 1082.97 1943.32ZM1096.58 1964.4C1094.61 1964.4 1092.92 1963.97 1091.5 1963.12C1090.12 1962.24 1089.06 1961.07 1088.34 1959.6C1087.62 1958.11 1087.26 1956.44 1087.26 1954.6C1087.26 1952.79 1087.61 1951.03 1088.3 1949.32C1089 1947.61 1090.04 1946.2 1091.42 1945.08C1092.81 1943.96 1094.52 1943.4 1096.54 1943.4C1097.88 1943.4 1099.12 1943.67 1100.26 1944.2C1101.41 1944.71 1102.32 1945.45 1102.98 1946.44C1103.68 1947.4 1104.02 1948.52 1104.02 1949.8C1104.02 1951.85 1103.18 1953.47 1101.5 1954.64C1099.82 1955.81 1097.64 1956.37 1094.94 1956.32L1090.78 1956.24C1091.08 1957.89 1091.72 1959.17 1092.7 1960.08C1093.72 1960.96 1095.05 1961.4 1096.7 1961.4C1098.86 1961.4 1100.92 1960.68 1102.86 1959.24L1104.66 1961.52C1102.13 1963.44 1099.44 1964.4 1096.58 1964.4ZM1094.94 1953.44C1096.73 1953.44 1098.14 1953.13 1099.18 1952.52C1100.22 1951.91 1100.74 1950.99 1100.74 1949.76C1100.74 1948.67 1100.34 1947.83 1099.54 1947.24C1098.77 1946.65 1097.84 1946.36 1096.74 1946.36C1095.52 1946.36 1094.45 1946.73 1093.54 1947.48C1092.64 1948.2 1091.94 1949.11 1091.46 1950.2C1090.98 1951.29 1090.7 1952.37 1090.62 1953.44H1094.94ZM1114.94 1964.4C1112 1964.4 1109.42 1963.28 1107.18 1961.04L1109.06 1958.84C1110.07 1959.72 1111.03 1960.37 1111.94 1960.8C1112.84 1961.2 1113.8 1961.4 1114.82 1961.4C1116.12 1961.4 1117.15 1961.12 1117.9 1960.56C1118.67 1959.97 1119.06 1959.17 1119.06 1958.16C1119.06 1957.55 1118.9 1957.05 1118.58 1956.68C1118.28 1956.31 1117.84 1955.99 1117.26 1955.72C1116.7 1955.43 1115.75 1955.01 1114.42 1954.48C1112.95 1953.89 1111.8 1953.39 1110.98 1952.96C1110.18 1952.51 1109.54 1951.95 1109.06 1951.28C1108.58 1950.59 1108.34 1949.73 1108.34 1948.72C1108.34 1947.07 1108.92 1945.73 1110.1 1944.72C1111.27 1943.71 1112.79 1943.2 1114.66 1943.2C1115.75 1943.2 1116.84 1943.39 1117.94 1943.76C1119.06 1944.11 1119.94 1944.56 1120.58 1945.12L1119.18 1947.48C1117.98 1946.6 1116.58 1946.16 1114.98 1946.16C1113.96 1946.16 1113.15 1946.37 1112.54 1946.8C1111.95 1947.2 1111.66 1947.76 1111.66 1948.48C1111.66 1949.23 1111.95 1949.81 1112.54 1950.24C1113.15 1950.64 1114.19 1951.13 1115.66 1951.72C1117.31 1952.39 1118.6 1952.99 1119.54 1953.52C1120.47 1954.05 1121.18 1954.68 1121.66 1955.4C1122.14 1956.09 1122.38 1956.97 1122.38 1958.04C1122.38 1959.93 1121.68 1961.47 1120.3 1962.64C1118.91 1963.81 1117.12 1964.4 1114.94 1964.4ZM1139.39 1936.56H1142.67V1964.04H1139.39V1936.56ZM806.28 2014.84C804.76 2014.84 803.293 2014.55 801.88 2013.96C800.493 2013.35 799.307 2012.52 798.32 2011.48C797.333 2010.41 796.68 2009.23 796.36 2007.92L798.36 2007.08C798.787 2008.71 799.733 2010.04 801.2 2011.08C802.693 2012.12 804.387 2012.64 806.28 2012.64C807.56 2012.64 808.72 2012.36 809.76 2011.8C810.8 2011.24 811.613 2010.48 812.2 2009.52C812.813 2008.53 813.12 2007.45 813.12 2006.28C813.12 2005.35 812.92 2004.55 812.52 2003.88C812.12 2003.19 811.44 2002.53 810.48 2001.92C809.52 2001.28 808.147 2000.59 806.36 1999.84C803.747 1998.75 801.893 1997.64 800.8 1996.52C799.707 1995.37 799.16 1994 799.16 1992.4C799.16 1991.15 799.48 1990.01 800.12 1989C800.76 1987.99 801.64 1987.2 802.76 1986.64C803.907 1986.05 805.187 1985.76 806.6 1985.76C807.827 1985.76 808.933 1985.97 809.92 1986.4C810.907 1986.8 811.68 1987.37 812.24 1988.12C812.8 1988.84 813.08 1989.65 813.08 1990.56C813.08 1991.63 812.68 1992.51 811.88 1993.2C811.107 1993.89 810.147 1994.17 809 1994.04L809.16 1991.96C809.587 1992.01 809.96 1991.91 810.28 1991.64C810.6 1991.35 810.76 1990.97 810.76 1990.52C810.76 1989.83 810.347 1989.23 809.52 1988.72C808.693 1988.21 807.733 1987.96 806.64 1987.96C805.733 1987.96 804.88 1988.16 804.08 1988.56C803.307 1988.93 802.693 1989.45 802.24 1990.12C801.787 1990.79 801.56 1991.51 801.56 1992.28C801.56 1993.4 802.027 1994.4 802.96 1995.28C803.92 1996.13 805.52 1997.04 807.76 1998C810.56 1999.2 812.547 2000.44 813.72 2001.72C814.92 2002.97 815.52 2004.48 815.52 2006.24C815.52 2007.81 815.107 2009.27 814.28 2010.6C813.453 2011.91 812.333 2012.95 810.92 2013.72C809.507 2014.47 807.96 2014.84 806.28 2014.84ZM826.783 1984H829.303L820.583 2016.8H818.023L826.783 1984ZM834.881 2014.16C834.428 2014.16 834.028 2014 833.681 2013.68C833.361 2013.33 833.201 2012.93 833.201 2012.48C833.201 2012 833.361 2011.6 833.681 2011.28C834.028 2010.93 834.428 2010.76 834.881 2010.76C835.361 2010.76 835.761 2010.93 836.081 2011.28C836.428 2011.6 836.601 2012 836.601 2012.48C836.601 2012.93 836.428 2013.33 836.081 2013.68C835.761 2014 835.361 2014.16 834.881 2014.16ZM850.084 2014.48C848.164 2014.48 846.43 2014.12 844.884 2013.4C843.337 2012.65 842.017 2011.75 840.924 2010.68L842.284 2008.96C844.417 2011.15 846.924 2012.24 849.804 2012.24C851.777 2012.24 853.43 2011.76 854.764 2010.8C856.124 2009.84 856.804 2008.45 856.804 2006.64C856.804 2005.44 856.484 2004.4 855.844 2003.52C855.204 2002.64 854.377 2001.97 853.364 2001.52C852.35 2001.04 851.284 2000.77 850.164 2000.72H845.804V1998.64H850.124C850.95 1998.64 851.764 1998.43 852.564 1998C853.39 1997.55 854.057 1996.95 854.564 1996.2C855.097 1995.45 855.364 1994.65 855.364 1993.8C855.364 1992.57 854.817 1991.61 853.724 1990.92C852.657 1990.2 851.404 1989.84 849.964 1989.84C849.004 1989.84 848.004 1990.01 846.964 1990.36C845.95 1990.68 845.07 1991.15 844.324 1991.76L843.284 1989.96C844.43 1989.13 845.524 1988.53 846.564 1988.16C847.604 1987.79 848.724 1987.6 849.924 1987.6C851.364 1987.6 852.684 1987.85 853.884 1988.36C855.084 1988.84 856.03 1989.55 856.724 1990.48C857.417 1991.39 857.764 1992.45 857.764 1993.68C857.764 1995.07 857.337 1996.33 856.484 1997.48C855.657 1998.6 854.604 1999.31 853.324 1999.6C855.057 1999.89 856.47 2000.72 857.564 2002.08C858.657 2003.44 859.204 2005.08 859.204 2007C859.204 2008.57 858.79 2009.93 857.964 2011.08C857.137 2012.2 856.03 2013.05 854.644 2013.64C853.257 2014.2 851.737 2014.48 850.084 2014.48ZM874.251 2014.4C871.984 2014.4 870.038 2013.79 868.411 2012.56C866.784 2011.33 865.544 2009.71 864.691 2007.68C863.838 2005.65 863.411 2003.47 863.411 2001.12C863.411 1998.77 863.838 1996.59 864.691 1994.56C865.544 1992.53 866.784 1990.92 868.411 1989.72C870.064 1988.49 872.011 1987.88 874.251 1987.88C876.491 1987.88 878.424 1988.51 880.051 1989.76C881.704 1990.99 882.958 1992.61 883.811 1994.64C884.664 1996.67 885.091 1998.87 885.091 2001.24C885.091 2003.61 884.651 2005.8 883.771 2007.8C882.918 2009.8 881.664 2011.4 880.011 2012.6C878.384 2013.8 876.464 2014.4 874.251 2014.4ZM874.331 2012.16C876.144 2012.16 877.678 2011.64 878.931 2010.6C880.184 2009.53 881.118 2008.16 881.731 2006.48C882.371 2004.77 882.691 2002.97 882.691 2001.08C882.691 1999.13 882.358 1997.33 881.691 1995.68C881.051 1994 880.091 1992.65 878.811 1991.64C877.558 1990.63 876.051 1990.12 874.291 1990.12C872.504 1990.12 870.971 1990.64 869.691 1991.68C868.411 1992.69 867.438 1994.04 866.771 1995.72C866.131 1997.4 865.811 1999.2 865.811 2001.12C865.811 2003.04 866.144 2004.85 866.811 2006.56C867.478 2008.24 868.451 2009.6 869.731 2010.64C871.011 2011.65 872.544 2012.16 874.331 2012.16ZM799.96 2038.88C799.533 2038.88 799.2 2039.03 798.96 2039.32C798.72 2039.59 798.6 2039.89 798.6 2040.24H796.32C796.32 2039.25 796.667 2038.41 797.36 2037.72C798.08 2037 798.907 2036.64 799.84 2036.64H817.96V2038.88H808.6V2064H806.2V2038.88H799.96ZM826.103 2064.4C824.263 2064.4 822.69 2063.93 821.383 2063C820.076 2062.07 819.09 2060.83 818.423 2059.28C817.756 2057.73 817.423 2056.03 817.423 2054.16C817.423 2052.11 817.823 2050.29 818.623 2048.72C819.423 2047.12 820.57 2045.88 822.063 2045C823.556 2044.12 825.303 2043.68 827.303 2043.68C827.916 2043.68 828.69 2043.72 829.623 2043.8C830.556 2043.85 831.383 2043.93 832.103 2044.04H834.503V2060.56C834.503 2061.09 834.623 2061.51 834.863 2061.8C835.13 2062.07 835.45 2062.2 835.823 2062.2C836.303 2062.2 836.69 2061.97 836.983 2061.52L838.703 2062.88C838.303 2063.44 837.85 2063.83 837.343 2064.04C836.863 2064.28 836.303 2064.4 835.663 2064.4C834.73 2064.4 833.903 2064.08 833.183 2063.44C832.49 2062.8 832.143 2062.03 832.143 2061.12C831.503 2062.19 830.663 2063 829.623 2063.56C828.583 2064.12 827.41 2064.4 826.103 2064.4ZM826.143 2062.24C827.343 2062.24 828.423 2061.95 829.383 2061.36C830.343 2060.77 831.063 2060 831.543 2059.04C831.916 2058.27 832.103 2057.41 832.103 2056.48V2046L829.463 2045.92L827.143 2045.84C824.716 2045.84 822.89 2046.6 821.663 2048.12C820.436 2049.64 819.823 2051.63 819.823 2054.08C819.823 2056.35 820.356 2058.28 821.423 2059.88C822.516 2061.45 824.09 2062.24 826.143 2062.24ZM844.619 2060.64C844.619 2061.01 844.739 2061.33 844.979 2061.6C845.245 2061.84 845.552 2061.96 845.899 2061.96C846.432 2061.96 846.819 2061.73 847.059 2061.28L848.819 2062.6C848.605 2063.05 848.232 2063.44 847.699 2063.76C847.165 2064.05 846.565 2064.2 845.899 2064.2C844.832 2064.2 843.952 2063.87 843.259 2063.2C842.565 2062.53 842.219 2061.67 842.219 2060.6V2034.96H844.619V2060.64ZM854.736 2060.64C854.736 2061.01 854.856 2061.33 855.096 2061.6C855.363 2061.84 855.669 2061.96 856.016 2061.96C856.549 2061.96 856.936 2061.73 857.176 2061.28L858.936 2062.6C858.723 2063.05 858.349 2063.44 857.816 2063.76C857.283 2064.05 856.683 2064.2 856.016 2064.2C854.949 2064.2 854.069 2063.87 853.376 2063.2C852.683 2062.53 852.336 2061.67 852.336 2060.6V2034.96H854.736V2060.64ZM869.672 2064.4C867.672 2064.4 865.979 2063.99 864.592 2063.16C863.205 2062.33 862.152 2061.2 861.432 2059.76C860.739 2058.29 860.392 2056.64 860.392 2054.8C860.392 2052.99 860.725 2051.23 861.392 2049.52C862.085 2047.81 863.112 2046.41 864.472 2045.32C865.859 2044.23 867.539 2043.68 869.512 2043.68C870.819 2043.68 872.032 2043.93 873.152 2044.44C874.272 2044.95 875.152 2045.67 875.792 2046.6C876.459 2047.53 876.792 2048.61 876.792 2049.84C876.792 2051.81 875.952 2053.35 874.272 2054.44C872.592 2055.51 870.272 2056.03 867.312 2056L862.912 2055.96C863.152 2058.01 863.832 2059.57 864.952 2060.64C866.099 2061.71 867.672 2062.24 869.672 2062.24C870.872 2062.24 871.979 2062.08 872.992 2061.76C874.032 2061.41 875.032 2060.89 875.992 2060.2L877.192 2061.8C876.179 2062.6 875.019 2063.24 873.712 2063.72C872.432 2064.17 871.085 2064.4 869.672 2064.4ZM867.832 2053.92C872.205 2053.92 874.392 2052.55 874.392 2049.8C874.392 2048.47 873.925 2047.48 872.992 2046.84C872.085 2046.17 870.965 2045.84 869.632 2045.84C868.139 2045.84 866.872 2046.27 865.832 2047.12C864.819 2047.97 864.059 2049.03 863.552 2050.28C863.045 2051.53 862.792 2052.75 862.792 2053.92H867.832ZM889.953 2043.6C890.753 2043.6 891.553 2043.72 892.353 2043.96V2046.2C891.579 2046.01 890.806 2045.92 890.033 2045.92C888.673 2045.92 887.566 2046.25 886.713 2046.92C885.859 2047.59 885.099 2048.53 884.433 2049.76V2064H882.033V2050C882.033 2047.89 881.473 2046.35 880.353 2045.36L881.953 2043.76C882.433 2044.05 882.886 2044.49 883.313 2045.08C883.739 2045.67 884.046 2046.32 884.233 2047.04C884.979 2045.81 885.726 2044.97 886.473 2044.52C887.406 2043.91 888.566 2043.6 889.953 2043.6ZM909.091 2064.52C908.238 2064.52 907.505 2064.29 906.891 2063.84C906.305 2063.39 905.918 2062.8 905.731 2062.08L907.571 2061.08C907.705 2061.43 907.891 2061.72 908.131 2061.96C908.398 2062.17 908.705 2062.28 909.051 2062.28C909.371 2062.28 909.625 2062.17 909.811 2061.96C910.025 2061.75 910.238 2061.39 910.451 2060.88L920.691 2036.28H921.491L933.131 2064H930.571L926.771 2054.92H915.371L912.371 2062.36C912.105 2063.03 911.665 2063.56 911.051 2063.96C910.438 2064.33 909.785 2064.52 909.091 2064.52ZM925.811 2052.68L921.491 2041.92L921.051 2040.32L920.651 2041.92L916.331 2052.68H925.811ZM934.981 2047.36C934.821 2046.88 934.554 2046.43 934.181 2046C933.808 2045.55 933.434 2045.21 933.061 2045L934.181 2043.32C935.648 2044.31 936.688 2045.76 937.301 2047.68L941.541 2060.52L946.941 2044H949.181L954.581 2060.52L959.981 2044H962.221L955.701 2063.96H953.461L948.061 2047.44L942.661 2063.96H940.381L934.981 2047.36ZM973.447 2064.4C971.607 2064.4 970.034 2063.93 968.727 2063C967.42 2062.07 966.434 2060.83 965.767 2059.28C965.1 2057.73 964.767 2056.03 964.767 2054.16C964.767 2052.11 965.167 2050.29 965.967 2048.72C966.767 2047.12 967.914 2045.88 969.407 2045C970.9 2044.12 972.647 2043.68 974.647 2043.68C975.26 2043.68 976.034 2043.72 976.967 2043.8C977.9 2043.85 978.727 2043.93 979.447 2044.04H981.847V2060.56C981.847 2061.09 981.967 2061.51 982.207 2061.8C982.474 2062.07 982.794 2062.2 983.167 2062.2C983.647 2062.2 984.034 2061.97 984.327 2061.52L986.047 2062.88C985.647 2063.44 985.194 2063.83 984.687 2064.04C984.207 2064.28 983.647 2064.4 983.007 2064.4C982.074 2064.4 981.247 2064.08 980.527 2063.44C979.834 2062.8 979.487 2062.03 979.487 2061.12C978.847 2062.19 978.007 2063 976.967 2063.56C975.927 2064.12 974.754 2064.4 973.447 2064.4ZM973.487 2062.24C974.687 2062.24 975.767 2061.95 976.727 2061.36C977.687 2060.77 978.407 2060 978.887 2059.04C979.26 2058.27 979.447 2057.41 979.447 2056.48V2046L976.807 2045.92L974.487 2045.84C972.06 2045.84 970.234 2046.6 969.007 2048.12C967.78 2049.64 967.167 2051.63 967.167 2054.08C967.167 2056.35 967.7 2058.28 968.767 2059.88C969.86 2061.45 971.434 2062.24 973.487 2062.24ZM1002.14 2061.44C1001.53 2062.43 1000.69 2063.17 999.621 2063.68C998.581 2064.16 997.421 2064.4 996.141 2064.4C994.355 2064.4 992.808 2063.95 991.501 2063.04C990.195 2062.11 989.195 2060.87 988.501 2059.32C987.835 2057.75 987.501 2056 987.501 2054.08C987.501 2050.93 988.395 2048.41 990.181 2046.52C991.995 2044.63 994.595 2043.68 997.981 2043.68C998.915 2043.68 1000.01 2043.75 1001.26 2043.88C1002.51 2044.01 1003.61 2044.21 1004.54 2044.48V2074.44H1002.14V2061.44ZM996.101 2062.24C997.648 2062.24 998.995 2061.77 1000.14 2060.84C1001.31 2059.91 1001.98 2058.69 1002.14 2057.2V2046.16C1000.7 2045.92 999.368 2045.8 998.141 2045.8C992.648 2045.8 989.901 2048.48 989.901 2053.84C989.901 2056.35 990.435 2058.37 991.501 2059.92C992.595 2061.47 994.128 2062.24 996.101 2062.24ZM1023.47 2064.52C1022.61 2064.52 1021.88 2064.29 1021.27 2063.84C1020.68 2063.39 1020.29 2062.8 1020.11 2062.08L1021.95 2061.08C1022.08 2061.43 1022.27 2061.72 1022.51 2061.96C1022.77 2062.17 1023.08 2062.28 1023.43 2062.28C1023.75 2062.28 1024 2062.17 1024.19 2061.96C1024.4 2061.75 1024.61 2061.39 1024.83 2060.88L1035.07 2036.28H1035.87L1047.51 2064H1044.95L1041.15 2054.92H1029.75L1026.75 2062.36C1026.48 2063.03 1026.04 2063.56 1025.43 2063.96C1024.81 2064.33 1024.16 2064.52 1023.47 2064.52ZM1040.19 2052.68L1035.87 2041.92L1035.43 2040.32L1035.03 2041.92L1030.71 2052.68H1040.19ZM1066.81 2044L1066.77 2058.48V2068.56C1066.77 2070.61 1066.22 2072.25 1065.13 2073.48C1064.03 2074.73 1062.58 2075.36 1060.77 2075.36C1059.65 2075.36 1058.62 2075.08 1057.69 2074.52C1056.78 2073.99 1056.06 2073.24 1055.53 2072.28C1055.02 2071.32 1054.77 2070.24 1054.77 2069.04C1054.77 2067.95 1054.97 2066.97 1055.37 2066.12C1055.79 2065.27 1056.37 2064.65 1057.09 2064.28C1055.3 2064.15 1053.87 2063.56 1052.81 2062.52C1051.74 2061.45 1051.21 2060.09 1051.21 2058.44V2049.76C1051.21 2047.65 1050.65 2046.11 1049.53 2045.12L1051.13 2043.52C1051.74 2043.92 1052.3 2044.53 1052.81 2045.36C1053.31 2046.19 1053.58 2047.08 1053.61 2048.04V2057.4C1053.61 2058.97 1053.95 2060.15 1054.65 2060.92C1055.37 2061.69 1056.45 2062.08 1057.89 2062.08C1059.06 2062.08 1060.1 2061.83 1061.01 2061.32C1061.94 2060.81 1062.87 2059.99 1063.81 2058.84C1064.02 2058.55 1064.17 2058.29 1064.25 2058.08C1064.33 2057.84 1064.37 2057.52 1064.37 2057.12L1064.41 2044H1066.81ZM1064.45 2060.88C1064.1 2061.44 1063.78 2061.88 1063.49 2062.2C1063.19 2062.49 1062.85 2062.8 1062.45 2063.12C1061.73 2063.63 1060.93 2064.12 1060.05 2064.6C1058.98 2065.16 1058.22 2065.77 1057.77 2066.44C1057.31 2067.11 1057.09 2067.95 1057.09 2068.96C1057.09 2070.21 1057.41 2071.2 1058.05 2071.92C1058.71 2072.67 1059.61 2073.04 1060.73 2073.04C1061.82 2073.04 1062.69 2072.65 1063.33 2071.88C1063.99 2071.11 1064.34 2070.05 1064.37 2068.72L1064.45 2060.88ZM1075.36 2060.64C1075.36 2061.01 1075.48 2061.33 1075.72 2061.6C1075.99 2061.84 1076.29 2061.96 1076.64 2061.96C1077.17 2061.96 1077.56 2061.73 1077.8 2061.28L1079.56 2062.6C1079.35 2063.05 1078.97 2063.44 1078.44 2063.76C1077.91 2064.05 1077.31 2064.2 1076.64 2064.2C1075.57 2064.2 1074.69 2063.87 1074 2063.2C1073.31 2062.53 1072.96 2061.67 1072.96 2060.6V2034.96H1075.36V2060.64ZM1085.48 2060.64C1085.48 2061.01 1085.6 2061.33 1085.84 2061.6C1086.1 2061.84 1086.41 2061.96 1086.76 2061.96C1087.29 2061.96 1087.68 2061.73 1087.92 2061.28L1089.68 2062.6C1089.46 2063.05 1089.09 2063.44 1088.56 2063.76C1088.02 2064.05 1087.42 2064.2 1086.76 2064.2C1085.69 2064.2 1084.81 2063.87 1084.12 2063.2C1083.42 2062.53 1083.08 2061.67 1083.08 2060.6V2034.96H1085.48V2060.64ZM1112.8 2062.88C1112.4 2063.44 1111.95 2063.83 1111.44 2064.04C1110.96 2064.28 1110.4 2064.4 1109.76 2064.4C1108.83 2064.4 1108 2064.08 1107.28 2063.44C1106.59 2062.8 1106.24 2062.03 1106.24 2061.12C1104.4 2063.25 1102.18 2064.32 1099.56 2064.32C1097.56 2064.32 1096 2063.84 1094.88 2062.88C1093.76 2061.89 1093.15 2060.41 1093.04 2058.44V2049.88C1093.04 2047.77 1092.48 2046.23 1091.36 2045.24L1092.96 2043.64C1093.6 2044.04 1094.18 2044.67 1094.68 2045.52C1095.19 2046.37 1095.44 2047.29 1095.44 2048.28V2057.4C1095.44 2058.92 1095.78 2060.09 1096.44 2060.92C1097.14 2061.75 1098.26 2062.16 1099.8 2062.16C1101.27 2062.16 1102.52 2061.84 1103.56 2061.2C1104.63 2060.56 1105.51 2059.55 1106.2 2058.16L1106.24 2044H1108.64L1108.6 2060.56C1108.6 2061.09 1108.72 2061.51 1108.96 2061.8C1109.23 2062.07 1109.55 2062.2 1109.92 2062.2C1110.4 2062.2 1110.79 2061.97 1111.08 2061.52L1112.8 2062.88ZM1122.04 2064.48C1119.35 2064.48 1116.84 2063.44 1114.52 2061.36L1115.84 2059.76C1116.85 2060.59 1117.85 2061.23 1118.84 2061.68C1119.85 2062.11 1120.93 2062.32 1122.08 2062.32C1123.52 2062.32 1124.64 2061.99 1125.44 2061.32C1126.27 2060.63 1126.68 2059.69 1126.68 2058.52C1126.68 2057.77 1126.49 2057.17 1126.12 2056.72C1125.77 2056.24 1125.29 2055.85 1124.68 2055.56C1124.09 2055.27 1123.03 2054.8 1121.48 2054.16C1120.07 2053.57 1118.97 2053.07 1118.2 2052.64C1117.43 2052.21 1116.81 2051.69 1116.36 2051.08C1115.91 2050.44 1115.68 2049.64 1115.68 2048.68C1115.68 2047.11 1116.24 2045.85 1117.36 2044.92C1118.48 2043.96 1119.97 2043.48 1121.84 2043.48C1122.8 2043.48 1123.75 2043.61 1124.68 2043.88C1125.64 2044.15 1126.45 2044.53 1127.12 2045.04L1126.12 2046.76C1124.89 2046.01 1123.51 2045.64 1121.96 2045.64C1120.73 2045.64 1119.79 2045.88 1119.12 2046.36C1118.45 2046.84 1118.12 2047.52 1118.12 2048.4C1118.12 2049.07 1118.29 2049.61 1118.64 2050.04C1119.01 2050.47 1119.48 2050.83 1120.04 2051.12C1120.63 2051.39 1121.59 2051.79 1122.92 2052.32C1124.44 2052.93 1125.61 2053.49 1126.44 2054C1127.29 2054.48 1127.95 2055.08 1128.4 2055.8C1128.88 2056.49 1129.12 2057.36 1129.12 2058.4C1129.12 2060.24 1128.47 2061.72 1127.16 2062.84C1125.88 2063.93 1124.17 2064.48 1122.04 2064.48Z" fill="white"/>
</g>
<defs>
<clipPath id="clip0_91_86">
<rect width="1440" height="2560" fill="white"/>
</clipPath>
</defs>
</svg>
