<svg width="1440" height="2558" viewBox="0 0 1440 2558" fill="none" xmlns="http://www.w3.org/2000/svg">
<g opacity="0.15">
<path d="M1434.57 1164.28L752.32 1846.35L1434.57 2528.42L2116.83 1846.35L1434.57 1164.28Z" fill="#3D3D3D"/>
<path d="M1435.92 2559.45L1413.77 2538.69L1429 2523.47L1420.69 2513.78L1426.23 2508.24L1435.92 2516.55L1444.22 2508.24L1449.76 2513.78L1441.45 2523.47L1456.68 2538.69L1435.92 2559.45Z" fill="#A3A3A3"/>
<path d="M1401.31 2524.86L1388.85 2512.4L1419.3 2481.96L1431.76 2494.41L1401.31 2524.86ZM1376.39 2499.95L1363.93 2487.49L1394.39 2457.04L1406.85 2469.5L1376.39 2499.95ZM1351.47 2475.04L1339.02 2462.58L1369.47 2432.13L1381.93 2444.59L1351.47 2475.04ZM1325.17 2450.12L1312.71 2437.67L1343.17 2407.22L1355.63 2419.68L1325.17 2450.12ZM1300.25 2423.83L1287.8 2411.37L1318.25 2380.93L1330.71 2393.38L1300.25 2423.83ZM1275.34 2398.92L1262.88 2386.46L1293.33 2356.02L1305.79 2368.47L1275.34 2398.92ZM1250.42 2374.01L1237.96 2361.55L1268.42 2331.11L1280.87 2343.56L1250.42 2374.01ZM1224.12 2349.1L1211.66 2336.64L1242.11 2306.2L1254.57 2318.65L1224.12 2349.1ZM1199.2 2322.8L1186.74 2310.35L1217.2 2279.9L1229.65 2292.36L1199.2 2322.8ZM1174.28 2297.89L1161.82 2285.44L1192.28 2254.99L1204.74 2267.45L1174.28 2297.89ZM1147.98 2272.98L1135.52 2260.53L1165.98 2230.08L1178.44 2242.53L1147.98 2272.98ZM1123.06 2246.69L1110.6 2234.23L1141.06 2203.78L1153.52 2216.24L1123.06 2246.69ZM1098.15 2221.78L1085.69 2209.32L1116.14 2178.87L1128.6 2191.33L1098.15 2221.78ZM1073.23 2196.86L1060.77 2184.41L1091.22 2153.96L1103.68 2166.42L1073.23 2196.86ZM1046.93 2171.95L1034.47 2159.5L1064.92 2129.05L1077.38 2141.51L1046.93 2171.95ZM1022.01 2145.66L1009.55 2133.2L1040.01 2102.76L1052.46 2115.21L1022.01 2145.66ZM997.092 2120.75L984.633 2108.29L1015.09 2077.85L1027.55 2090.3L997.092 2120.75ZM972.174 2095.84L959.715 2083.38L990.17 2052.94L1002.63 2065.39L972.174 2095.84ZM945.872 2070.93L933.414 2058.47L963.868 2028.02L976.327 2040.48L945.872 2070.93ZM920.955 2044.63L908.496 2032.18L938.951 2001.73L951.41 2014.19L920.955 2044.63ZM896.038 2019.72L883.579 2007.27L914.033 1976.82L926.492 1989.27L896.038 2019.72ZM869.735 1994.81L857.277 1982.35L887.732 1951.91L900.19 1964.36L869.735 1994.81ZM844.818 1969.9L832.36 1957.44L862.814 1927L875.273 1939.45L844.818 1969.9ZM819.901 1943.6L807.442 1931.15L837.897 1900.7L850.355 1913.16L819.901 1943.6ZM794.983 1918.69L782.524 1906.24L812.979 1875.79L825.438 1888.25L794.983 1918.69ZM768.681 1893.78L756.223 1881.33L786.677 1850.88L799.136 1863.34L768.681 1893.78Z" fill="#A3A3A3"/>
<path d="M743.765 1867.49L723 1846.73L743.765 1825.97L758.992 1841.19L767.297 1831.5L774.219 1838.42L764.529 1846.73L774.219 1855.03L767.297 1861.95L758.992 1853.65L743.765 1867.49Z" fill="#A3A3A3"/>
<path d="M786.677 1842.58L756.223 1812.13L768.682 1799.68L799.136 1830.12L786.677 1842.58ZM811.595 1817.67L781.14 1787.22L793.599 1774.77L824.054 1805.21L811.595 1817.67ZM836.512 1792.76L806.058 1762.31L818.517 1749.85L848.971 1780.3L836.512 1792.76ZM862.814 1766.46L832.36 1736.02L844.818 1723.56L875.273 1754.01L862.814 1766.46ZM887.732 1741.55L857.277 1711.1L869.736 1698.65L900.19 1729.1L887.732 1741.55ZM912.649 1716.64L882.195 1686.19L894.653 1673.74L925.108 1704.18L912.649 1716.64ZM938.951 1691.73L908.496 1661.28L920.955 1648.83L951.41 1679.27L938.951 1691.73ZM963.869 1665.43L933.414 1634.99L945.872 1622.53L976.327 1652.98L963.869 1665.43ZM988.786 1640.52L958.331 1610.08L970.79 1597.62L1001.24 1628.07L988.786 1640.52ZM1013.7 1615.61L983.249 1585.17L995.707 1572.71L1026.16 1603.16L1013.7 1615.61ZM1040.01 1590.7L1009.55 1560.26L1022.01 1547.8L1052.46 1578.25L1040.01 1590.7ZM1064.92 1564.41L1034.47 1533.96L1046.93 1521.51L1077.38 1551.95L1064.92 1564.41ZM1089.84 1539.5L1059.39 1509.05L1071.84 1496.59L1102.3 1527.04L1089.84 1539.5ZM1114.76 1514.59L1084.3 1484.14L1096.76 1471.68L1127.22 1502.13L1114.76 1514.59ZM1141.06 1489.67L1110.6 1459.23L1123.06 1446.77L1153.52 1477.22L1141.06 1489.67ZM1165.98 1463.38L1135.52 1432.93L1147.98 1420.48L1178.44 1450.92L1165.98 1463.38ZM1190.89 1438.47L1160.44 1408.02L1172.9 1395.57L1203.35 1426.01L1190.89 1438.47ZM1215.81 1413.56L1185.36 1383.11L1197.82 1370.66L1228.27 1401.1L1215.81 1413.56ZM1242.11 1387.26L1211.66 1356.82L1224.12 1344.36L1254.57 1374.81L1242.11 1387.26ZM1267.03 1362.35L1236.58 1331.91L1249.04 1319.45L1279.49 1349.9L1267.03 1362.35ZM1291.95 1337.44L1261.49 1307L1273.95 1294.54L1304.41 1324.99L1291.95 1337.44ZM1318.25 1312.53L1287.8 1282.08L1300.25 1269.63L1330.71 1300.08L1318.25 1312.53ZM1343.17 1286.24L1312.71 1255.79L1325.17 1243.33L1355.63 1273.78L1343.17 1286.24ZM1368.09 1261.33L1337.63 1230.88L1350.09 1218.42L1380.54 1248.87L1368.09 1261.33ZM1393 1236.41L1362.55 1205.97L1375.01 1193.51L1405.46 1223.96L1393 1236.41ZM1419.3 1211.5L1388.85 1181.06L1401.31 1168.6L1431.76 1199.05L1419.3 1211.5Z" fill="#A3A3A3"/>
<path d="M1444.22 1185.21L1435.92 1176.9L1426.23 1185.21L1420.69 1179.67L1429 1169.98L1413.77 1156.14L1435.92 1134L1456.68 1156.14L1441.45 1169.98L1449.76 1179.67L1444.22 1185.21Z" fill="#A3A3A3"/>
<path d="M1469.14 2524.86L1438.69 2494.41L1451.14 2481.96L1481.6 2512.4L1469.14 2524.86ZM1494.06 2499.95L1463.6 2469.5L1476.06 2457.04L1506.52 2487.49L1494.06 2499.95ZM1520.36 2475.04L1489.9 2444.59L1502.36 2432.13L1532.82 2462.58L1520.36 2475.04ZM1545.28 2450.12L1514.82 2419.68L1527.28 2407.22L1557.74 2437.67L1545.28 2450.12ZM1570.19 2423.83L1539.74 2393.38L1552.2 2380.93L1582.65 2411.37L1570.19 2423.83ZM1595.11 2398.92L1564.66 2368.47L1577.12 2356.02L1607.57 2386.46L1595.11 2398.92ZM1621.41 2374.01L1590.96 2343.56L1603.42 2331.11L1633.87 2361.55L1621.41 2374.01ZM1646.33 2349.1L1615.88 2318.65L1628.33 2306.2L1658.79 2336.64L1646.33 2349.1ZM1671.25 2322.8L1640.79 2292.36L1653.25 2279.9L1683.71 2310.35L1671.25 2322.8ZM1696.17 2297.89L1665.71 2267.45L1678.17 2254.99L1708.62 2285.44L1696.17 2297.89ZM1722.47 2272.98L1692.01 2242.53L1704.47 2230.08L1734.93 2260.53L1722.47 2272.98ZM1747.39 2246.69L1716.93 2216.24L1729.39 2203.78L1759.84 2234.23L1747.39 2246.69ZM1772.3 2221.78L1741.85 2191.33L1754.31 2178.87L1784.76 2209.32L1772.3 2221.78ZM1798.6 2196.86L1768.15 2166.42L1780.61 2153.96L1811.06 2184.41L1798.6 2196.86ZM1823.52 2171.95L1793.07 2141.51L1805.53 2129.05L1835.98 2159.5L1823.52 2171.95ZM1848.44 2145.66L1817.98 2115.21L1830.44 2102.76L1860.9 2133.2L1848.44 2145.66ZM1873.36 2120.75L1842.9 2090.3L1855.36 2077.85L1885.82 2108.29L1873.36 2120.75ZM1899.66 2095.84L1869.2 2065.39L1881.66 2052.94L1912.12 2083.38L1899.66 2095.84ZM1924.58 2070.93L1894.12 2040.48L1906.58 2028.02L1937.03 2058.47L1924.58 2070.93ZM1949.49 2044.63L1919.04 2014.19L1931.5 2001.73L1961.95 2032.18L1949.49 2044.63ZM1974.41 2019.72L1943.96 1989.27L1956.41 1976.82L1986.87 2007.27L1974.41 2019.72ZM2000.71 1994.81L1970.26 1964.36L1982.72 1951.91L2013.17 1982.35L2000.71 1994.81ZM2025.63 1969.9L1995.18 1939.45L2007.63 1927L2038.09 1957.44L2025.63 1969.9ZM2050.55 1943.6L2020.09 1913.16L2032.55 1900.7L2063.01 1931.15L2050.55 1943.6ZM2076.85 1918.69L2046.39 1888.25L2058.85 1875.79L2089.31 1906.24L2076.85 1918.69ZM2101.77 1893.78L2071.31 1863.34L2083.77 1850.88L2114.23 1881.33L2101.77 1893.78Z" fill="#A3A3A3"/>
<path d="M1435.92 2365.7L1412.38 2342.18L1428.99 2325.57L1419.3 2315.88L1426.23 2310.35L1435.92 2318.65L1444.22 2310.35L1451.14 2315.88L1442.84 2325.57L1458.06 2342.18L1435.92 2365.7Z" fill="#A3A3A3"/>
<path d="M1398.54 2328.34L1384.7 2314.5L1417.92 2281.28L1431.76 2295.12L1398.54 2328.34ZM1372.24 2302.04L1358.4 2288.2L1391.62 2254.99L1405.46 2268.83L1372.24 2302.04ZM1344.55 2274.36L1330.71 2260.53L1363.93 2227.31L1377.78 2241.15L1344.55 2274.36ZM1318.25 2248.07L1304.41 2234.23L1337.63 2201.02L1351.47 2214.86L1318.25 2248.07ZM1290.56 2220.39L1276.72 2206.55L1309.94 2173.34L1323.79 2187.18L1290.56 2220.39ZM1264.26 2194.1L1250.42 2180.26L1283.64 2147.04L1297.49 2160.88L1264.26 2194.1ZM1236.58 2166.42L1222.73 2152.58L1255.96 2119.36L1269.8 2133.2L1236.58 2166.42ZM1210.27 2140.12L1196.43 2126.28L1229.65 2093.07L1243.5 2106.91L1210.27 2140.12ZM1182.59 2112.44L1168.75 2098.6L1201.97 2065.39L1215.81 2079.23L1182.59 2112.44ZM1156.29 2086.15L1142.44 2072.31L1175.67 2039.1L1189.51 2052.93L1156.29 2086.15ZM1128.6 2058.47L1114.76 2044.63L1147.98 2011.42L1161.82 2025.26L1128.6 2058.47ZM1102.3 2032.18L1088.46 2018.34L1121.68 1985.12L1135.52 1998.96L1102.3 2032.18ZM1074.61 2004.5L1060.77 1990.66L1093.99 1957.44L1107.84 1971.28L1074.61 2004.5ZM1048.31 1978.2L1034.47 1964.36L1067.69 1931.15L1081.53 1944.99L1048.31 1978.2ZM1020.62 1950.52L1006.78 1936.68L1040.01 1903.47L1053.85 1917.31L1020.62 1950.52ZM994.323 1924.23L980.48 1910.39L1013.7 1877.17L1027.55 1891.01L994.323 1924.23ZM966.637 1896.55L952.794 1882.71L986.017 1849.5L999.86 1863.34L966.637 1896.55Z" fill="#A3A3A3"/>
<path d="M940.335 1870.26L916.802 1846.73L940.335 1823.2L955.563 1839.81L965.253 1830.12L972.175 1837.04L962.484 1846.73L972.175 1856.42L965.253 1863.34L955.563 1853.65L940.335 1870.26Z" fill="#A3A3A3"/>
<path d="M986.017 1842.57L952.794 1809.36L966.637 1795.52L999.86 1828.74L986.017 1842.57ZM1012.32 1816.28L979.096 1783.07L992.939 1769.23L1026.16 1802.44L1012.32 1816.28ZM1040.01 1788.6L1006.78 1755.39L1020.62 1741.55L1053.85 1774.76L1040.01 1788.6ZM1066.31 1762.31L1033.08 1729.09L1046.93 1715.25L1080.15 1748.47L1066.31 1762.31ZM1093.99 1734.63L1060.77 1701.41L1074.61 1687.57L1107.84 1720.79L1093.99 1734.63ZM1120.29 1708.33L1087.07 1675.12L1100.91 1661.28L1134.14 1694.49L1120.29 1708.33ZM1147.98 1680.65L1114.76 1647.44L1128.6 1633.6L1161.82 1666.81L1147.98 1680.65ZM1174.28 1654.36L1141.06 1621.15L1154.9 1607.31L1188.13 1640.52L1174.28 1654.36ZM1201.97 1626.68L1168.75 1593.47L1182.59 1579.63L1215.81 1612.84L1201.97 1626.68ZM1228.27 1600.39L1195.05 1567.17L1208.89 1553.33L1242.11 1586.55L1228.27 1600.39ZM1255.96 1572.71L1222.73 1539.49L1236.58 1525.65L1269.8 1558.87L1255.96 1572.71ZM1282.26 1546.41L1249.04 1513.2L1262.88 1499.36L1296.1 1532.57L1282.26 1546.41ZM1309.94 1518.73L1276.72 1485.52L1290.56 1471.68L1323.79 1504.9L1309.94 1518.73ZM1336.25 1492.44L1303.02 1459.22L1316.87 1445.39L1350.09 1478.6L1336.25 1492.44ZM1363.93 1464.76L1330.71 1431.55L1344.55 1417.71L1377.78 1450.92L1363.93 1464.76ZM1390.23 1438.47L1357.01 1405.25L1370.85 1391.41L1404.08 1424.63L1390.23 1438.47ZM1417.92 1410.79L1384.7 1377.57L1398.54 1363.73L1431.76 1396.95L1417.92 1410.79Z" fill="#A3A3A3"/>
<path d="M1426.23 1384.49L1419.3 1377.58L1428.99 1367.89L1412.38 1351.28L1435.92 1327.75L1458.06 1351.28L1442.84 1367.89L1451.14 1377.58L1444.22 1384.49L1435.92 1374.81L1426.23 1384.49Z" fill="#A3A3A3"/>
<path d="M1884.43 1842.57L1870.59 1828.74L1903.81 1795.52L1917.65 1809.36L1884.43 1842.57ZM1858.13 1816.28L1844.29 1802.44L1877.51 1769.23L1891.35 1783.07L1858.13 1816.28ZM1830.44 1788.6L1816.6 1774.76L1849.82 1741.55L1863.67 1755.39L1830.44 1788.6ZM1804.14 1762.31L1790.3 1748.47L1823.52 1715.25L1837.37 1729.09L1804.14 1762.31ZM1776.46 1734.63L1762.61 1720.79L1795.84 1687.57L1809.68 1701.41L1776.46 1734.63ZM1750.15 1708.33L1736.31 1694.49L1769.53 1661.28L1783.38 1675.12L1750.15 1708.33ZM1722.47 1680.65L1708.62 1666.81L1741.85 1633.6L1755.69 1647.44L1722.47 1680.65ZM1696.17 1654.36L1682.32 1640.52L1715.55 1607.31L1729.39 1621.15L1696.17 1654.36ZM1668.48 1626.68L1654.64 1612.84L1687.86 1579.63L1701.7 1593.47L1668.48 1626.68ZM1642.18 1600.39L1628.33 1586.55L1661.56 1553.33L1675.4 1567.17L1642.18 1600.39ZM1614.49 1572.71L1600.65 1558.87L1633.87 1525.65L1647.72 1539.49L1614.49 1572.71ZM1588.19 1546.41L1574.35 1532.57L1607.57 1499.36L1621.41 1513.2L1588.19 1546.41ZM1560.5 1518.73L1546.66 1504.9L1579.88 1471.68L1593.73 1485.52L1560.5 1518.73ZM1534.2 1492.44L1520.36 1478.6L1553.58 1445.39L1567.43 1459.22L1534.2 1492.44ZM1506.52 1464.76L1492.67 1450.92L1525.9 1417.71L1539.74 1431.55L1506.52 1464.76ZM1480.21 1438.47L1466.37 1424.63L1499.59 1391.41L1513.44 1405.25L1480.21 1438.47ZM1452.53 1410.79L1438.69 1396.95L1471.91 1363.73L1485.75 1377.57L1452.53 1410.79Z" fill="#A3A3A3"/>
<path d="M1471.91 2328.34L1438.69 2295.12L1452.53 2281.28L1485.75 2314.5L1471.91 2328.34ZM1499.59 2302.04L1466.37 2268.83L1480.21 2254.99L1513.44 2288.2L1499.59 2302.04ZM1525.9 2274.36L1492.67 2241.15L1506.52 2227.31L1539.74 2260.53L1525.9 2274.36ZM1553.58 2248.07L1520.36 2214.86L1534.2 2201.02L1567.43 2234.23L1553.58 2248.07ZM1579.88 2220.39L1546.66 2187.18L1560.5 2173.34L1593.73 2206.55L1579.88 2220.39ZM1607.57 2194.1L1574.35 2160.88L1588.19 2147.04L1621.41 2180.26L1607.57 2194.1ZM1633.87 2166.42L1600.65 2133.2L1614.49 2119.36L1647.72 2152.58L1633.87 2166.42ZM1661.56 2140.12L1628.33 2106.91L1642.18 2093.07L1675.4 2126.28L1661.56 2140.12ZM1687.86 2112.44L1654.64 2079.23L1668.48 2065.39L1701.7 2098.6L1687.86 2112.44ZM1715.55 2086.15L1682.32 2052.93L1696.17 2039.1L1729.39 2072.31L1715.55 2086.15ZM1741.85 2058.47L1708.62 2025.26L1722.47 2011.42L1755.69 2044.63L1741.85 2058.47ZM1769.53 2032.18L1736.31 1998.96L1750.15 1985.12L1783.38 2018.34L1769.53 2032.18ZM1795.84 2004.5L1762.61 1971.28L1776.46 1957.44L1809.68 1990.66L1795.84 2004.5ZM1823.52 1978.2L1790.3 1944.99L1804.14 1931.15L1837.37 1964.36L1823.52 1978.2ZM1849.82 1950.52L1816.6 1917.31L1830.44 1903.47L1863.67 1936.68L1849.82 1950.52ZM1877.51 1924.23L1844.29 1891.01L1858.13 1877.17L1891.35 1910.39L1877.51 1924.23ZM1903.81 1896.55L1870.59 1863.34L1884.43 1849.5L1917.65 1882.71L1903.81 1896.55Z" fill="#A3A3A3"/>
<path d="M1435.18 2152.73L1741.55 1846.44L1435.18 1540.14L1128.8 1846.44L1435.18 2152.73Z" fill="#A3A3A3"/>
</g>
<rect x="0.5" y="-2" width="195.161" height="195.869" rx="7" transform="rotate(45 0.5 -2)" fill="#D9D9D9"/>
</svg>
