<svg width="1440" height="2560" viewBox="0 0 1440 2560" fill="none" xmlns="http://www.w3.org/2000/svg">
<g clip-path="url(#clip0_34_4969)">
<rect width="1440" height="2560" fill="white"/>
<rect x="159" y="1385" width="39.5976" height="39.5976" transform="rotate(45 159 1385)" fill="#D9D9D9"/>
<rect x="384" y="1385" width="39.5976" height="39.5976" transform="rotate(45 384 1385)" fill="#D9D9D9"/>
<rect x="84" y="1385" width="39.5976" height="39.5976" transform="rotate(45 84 1385)" fill="#D9D9D9"/>
<rect x="309" y="1385" width="39.5976" height="39.5976" transform="rotate(45 309 1385)" fill="#D9D9D9"/>
<rect x="234" y="1385" width="39.5976" height="39.5976" transform="rotate(45 234 1385)" fill="#D9D9D9"/>
<rect x="1205" y="1385" width="39.5976" height="39.5976" transform="rotate(45 1205 1385)" fill="#D9D9D9"/>
<rect x="1055" y="1385" width="39.5976" height="39.5976" transform="rotate(45 1055 1385)" fill="#D9D9D9"/>
<rect x="1280" y="1385" width="39.5976" height="39.5976" transform="rotate(45 1280 1385)" fill="#D9D9D9"/>
<rect x="1130" y="1385" width="39.5976" height="39.5976" transform="rotate(45 1130 1385)" fill="#D9D9D9"/>
<rect x="1355" y="1385" width="39.5976" height="39.5976" transform="rotate(45 1355 1385)" fill="#D9D9D9"/>
<path d="M477.201 2437.96L468.927 2429.42L470.563 2417.6C470.745 2415.96 469.745 2414.51 468.108 2414.23L456.379 2412.14L450.833 2401.68C450.105 2400.23 448.287 2399.68 446.832 2400.41L436.103 2405.59L425.374 2400.32C423.919 2399.59 422.191 2400.14 421.373 2401.59L415.827 2412.14L404.097 2414.23C402.461 2414.51 401.37 2416.05 401.642 2417.6L403.279 2429.42L395.005 2437.96C393.914 2439.15 393.914 2440.96 395.005 2442.15L403.279 2450.69L401.642 2462.51C401.461 2464.15 402.461 2465.6 404.097 2465.88L415.827 2467.97L421.464 2478.52C422.191 2479.97 424.01 2480.52 425.465 2479.79L436.103 2474.61L446.832 2479.88C447.287 2480.06 447.741 2480.15 448.105 2480.15C449.196 2480.15 450.196 2479.61 450.742 2478.52L456.288 2467.97L468.017 2465.88C469.654 2465.6 470.745 2464.06 470.472 2462.51L468.836 2450.69L477.11 2442.15C478.383 2440.96 478.383 2439.15 477.201 2437.96ZM463.562 2447.6C462.926 2448.24 462.653 2449.24 462.744 2450.15L464.199 2460.51L453.833 2462.33C452.924 2462.51 452.106 2463.06 451.742 2463.88L446.832 2473.15L437.376 2468.51C436.921 2468.33 436.467 2468.24 436.012 2468.24C435.557 2468.24 435.103 2468.33 434.648 2468.51L425.192 2473.15L420.282 2463.88C419.827 2463.06 419.1 2462.51 418.191 2462.33L407.825 2460.51L409.28 2450.15C409.371 2449.24 409.098 2448.33 408.462 2447.6L401.188 2440.05L408.462 2432.51C409.098 2431.87 409.371 2430.87 409.28 2429.96L407.825 2419.6L418.191 2417.78C419.1 2417.6 419.918 2417.05 420.373 2416.23L425.283 2406.96L434.739 2411.6C435.557 2411.96 436.558 2411.96 437.376 2411.6L446.832 2406.96L451.742 2416.23C452.197 2417.05 452.924 2417.6 453.833 2417.78L464.199 2419.6L462.744 2430.05C462.653 2430.96 462.926 2431.87 463.562 2432.6L470.836 2440.15L463.562 2447.6Z" fill="white"/>
<path d="M427.829 2438.19C431.329 2438.19 434.193 2435.32 434.193 2431.82C434.193 2428.32 431.329 2425.46 427.829 2425.46C424.328 2425.46 421.464 2428.32 421.464 2431.82C421.464 2435.32 424.328 2438.19 427.829 2438.19ZM427.829 2429.68C429.022 2429.68 429.977 2430.63 429.977 2431.82C429.977 2433.02 429.022 2433.97 427.829 2433.97C426.635 2433.97 425.681 2433.02 425.681 2431.82C425.681 2430.63 426.635 2429.68 427.829 2429.68Z" fill="white"/>
<path d="M449.048 2427.85C448.259 2427.09 446.918 2427.09 446.128 2427.85L423.874 2449.31C423.085 2450.07 423.085 2451.37 423.874 2452.13C424.269 2452.51 424.821 2452.74 425.373 2452.74C425.926 2452.74 426.478 2452.51 426.873 2452.13L449.127 2430.66C449.837 2429.9 449.837 2428.61 449.048 2427.85Z" fill="white"/>
<path d="M444.195 2441.83C440.695 2441.83 437.831 2444.69 437.831 2448.19C437.831 2451.69 440.695 2454.55 444.195 2454.55C447.696 2454.55 450.56 2451.69 450.56 2448.19C450.56 2444.69 447.696 2441.83 444.195 2441.83ZM444.195 2450.34C443.002 2450.34 442.047 2449.38 442.047 2448.19C442.047 2447 443.002 2446.04 444.195 2446.04C445.389 2446.04 446.343 2447 446.343 2448.19C446.343 2449.38 445.389 2450.34 444.195 2450.34Z" fill="white"/>
<path d="M196 2431.21C196 2429.41 195.716 2427.8 195.243 2426.29C195.243 2426.01 195.243 2426.01 194.96 2425.72L187.867 2408.13C186.543 2404.44 183.138 2402.17 178.977 2402.17H129.423C125.261 2402.17 122.141 2404.26 120.817 2407.94L113.251 2425.91C113.251 2425.91 113.251 2426.2 113.251 2426.48C112.684 2427.99 112.4 2429.88 112.4 2431.68C112.4 2436.41 114.197 2440.57 117.601 2443.69V2470.08C117.601 2474.24 121.006 2477.93 125.451 2477.93H182.098C186.259 2477.93 189.947 2474.52 189.947 2470.08V2444.73C193.636 2440.85 196 2436.13 196 2431.21ZM182.098 2471.12H125.451C124.41 2471.12 123.843 2470.36 123.843 2469.51V2446.81C125.451 2447.38 127.247 2447.57 129.328 2447.57C134.246 2447.57 138.69 2445.49 141.906 2441.61C145.027 2445.3 149.471 2447.38 154.484 2447.38C159.496 2447.38 163.846 2445.3 167.061 2441.42C170.182 2445.11 174.911 2447.38 179.828 2447.38C181.436 2447.38 182.666 2447.1 183.99 2446.81V2469.32C183.706 2470.36 182.949 2471.12 182.098 2471.12ZM184.462 2440.29C183.138 2441.04 181.342 2441.33 179.545 2441.33C175.857 2441.33 172.452 2439.53 170.655 2436.41C170.371 2436.13 170.371 2435.65 169.899 2435.09C169.331 2434.52 168.575 2433.76 167.061 2433.76C165.737 2433.76 164.697 2434.33 164.224 2435.09C163.657 2435.65 163.657 2435.84 163.468 2436.41C161.671 2439.53 158.266 2441.33 154.578 2441.33C150.89 2441.33 147.485 2439.53 145.689 2436.41C145.405 2436.13 145.405 2435.65 144.932 2435.37C143.608 2433.76 140.204 2433.76 139.163 2435.37C138.596 2435.94 138.407 2436.41 138.407 2436.69C136.61 2439.81 133.205 2441.61 129.517 2441.61C127.72 2441.61 125.829 2441.33 124.599 2440.57C121.195 2438.77 119.114 2435.09 119.114 2431.21C119.114 2430.17 119.398 2428.84 119.682 2427.8V2427.52L127.247 2409.74C127.531 2409.17 127.815 2407.94 130.085 2407.94H179.545C180.585 2407.94 182.193 2408.23 182.666 2409.74L189.758 2427.24V2427.52C190.042 2428.56 190.326 2429.88 190.326 2430.92C189.947 2434.8 187.867 2438.49 184.462 2440.29Z" fill="white"/>
<path d="M1028.27 2450.64C1028.37 2452.01 1029.54 2452.98 1030.91 2452.98C1031 2452.98 1031.1 2452.98 1031.2 2452.98C1032.66 2452.79 1033.64 2451.52 1033.54 2450.15L1032.37 2438.54C1032.17 2437.08 1030.91 2436.1 1029.54 2436.2C1028.08 2436.4 1027.1 2437.66 1027.2 2439.03L1028.27 2450.64Z" fill="white"/>
<path d="M1044.57 2452.98C1044.66 2452.98 1044.76 2452.98 1044.86 2452.98C1046.23 2452.98 1047.3 2452.01 1047.49 2450.64L1048.57 2439.03C1048.76 2437.57 1047.69 2436.3 1046.23 2436.2C1044.76 2436.1 1043.49 2437.08 1043.4 2438.54L1042.22 2450.15C1042.03 2451.52 1043.1 2452.79 1044.57 2452.98Z" fill="white"/>
<path d="M1024.37 2464.3C1019.88 2464.3 1016.27 2467.91 1016.27 2472.4C1016.27 2476.89 1019.88 2480.5 1024.37 2480.5C1028.86 2480.5 1032.47 2476.89 1032.47 2472.4C1032.47 2467.91 1028.86 2464.3 1024.37 2464.3ZM1024.37 2475.23C1022.81 2475.23 1021.54 2473.96 1021.54 2472.4C1021.54 2470.84 1022.81 2469.57 1024.37 2469.57C1025.93 2469.57 1027.2 2470.84 1027.2 2472.4C1027.2 2473.87 1025.93 2475.23 1024.37 2475.23Z" fill="white"/>
<path d="M1051.3 2464.3C1046.81 2464.3 1043.2 2467.91 1043.2 2472.4C1043.2 2476.89 1046.81 2480.5 1051.3 2480.5C1055.79 2480.5 1059.4 2476.89 1059.4 2472.4C1059.3 2467.91 1055.69 2464.3 1051.3 2464.3ZM1051.3 2475.23C1049.74 2475.23 1048.47 2473.96 1048.47 2472.4C1048.47 2470.84 1049.74 2469.57 1051.3 2469.57C1052.86 2469.57 1054.13 2470.84 1054.13 2472.4C1054.13 2473.87 1052.86 2475.23 1051.3 2475.23Z" fill="white"/>
<path d="M1066.81 2427.42C1066.33 2426.74 1065.55 2426.44 1064.76 2426.44H1012.85L1010.71 2418.05C1010.41 2416.88 1009.34 2416.1 1008.17 2416.1H997.535C996.071 2416.1 994.9 2417.27 994.9 2418.73C994.9 2420.2 996.071 2421.37 997.535 2421.37H1006.22L1008.37 2429.66V2429.76L1016.37 2460.69C1016.66 2461.86 1017.73 2462.64 1018.9 2462.64H1056.67C1057.84 2462.64 1058.91 2461.86 1059.2 2460.69L1067.3 2429.66C1067.5 2428.88 1067.3 2428.1 1066.81 2427.42ZM1054.71 2457.47H1020.95L1014.22 2431.71H1061.45L1054.71 2457.47Z" fill="white"/>
<path d="M1027.59 2418.34C1028.08 2418.83 1028.76 2419.12 1029.44 2419.12C1030.13 2419.12 1030.81 2418.83 1031.3 2418.34C1032.27 2417.37 1032.27 2415.71 1031.3 2414.64L1023.1 2406.44C1022.12 2405.46 1020.47 2405.46 1019.39 2406.44C1018.42 2407.42 1018.42 2409.07 1019.39 2410.15L1027.59 2418.34Z" fill="white"/>
<path d="M1046.23 2419.12C1046.91 2419.12 1047.59 2418.83 1048.08 2418.34L1056.28 2410.15C1057.25 2409.17 1057.25 2407.51 1056.28 2406.44C1055.3 2405.46 1053.64 2405.46 1052.57 2406.44L1044.37 2414.64C1043.4 2415.61 1043.4 2417.27 1044.37 2418.34C1044.86 2418.83 1045.54 2419.12 1046.23 2419.12Z" fill="white"/>
<path d="M1037.83 2416.78C1039.3 2416.78 1040.47 2415.61 1040.47 2414.15V2402.54C1040.47 2401.17 1039.3 2400 1037.83 2400C1036.37 2400 1035.2 2401.17 1035.2 2402.63V2414.25C1035.2 2415.61 1036.37 2416.78 1037.83 2416.78Z" fill="white"/>
<path fill-rule="evenodd" clip-rule="evenodd" d="M1336.76 2465.15H1289.26C1286.66 2465.15 1284.86 2462.65 1285.76 2460.35C1290.26 2449.65 1300.76 2443.45 1312.96 2443.45C1325.16 2443.45 1335.66 2449.55 1340.16 2460.35C1341.16 2462.65 1339.36 2465.15 1336.76 2465.15ZM1298.26 2421.75C1298.26 2413.75 1304.86 2407.25 1313.06 2407.25C1321.16 2407.25 1327.86 2413.75 1327.86 2421.75C1327.86 2429.75 1321.26 2436.25 1313.06 2436.25C1304.86 2436.25 1298.26 2429.75 1298.26 2421.75ZM1349.06 2463.85C1346.36 2451.75 1337.96 2442.75 1326.96 2438.65C1332.86 2434.05 1336.26 2426.55 1334.96 2418.35C1333.46 2408.85 1325.46 2401.25 1315.76 2400.15C1302.36 2398.65 1290.96 2408.85 1290.96 2421.75C1290.96 2428.55 1294.16 2434.65 1299.26 2438.65C1288.16 2442.75 1279.86 2451.65 1277.16 2463.85C1276.16 2468.25 1279.86 2472.45 1284.46 2472.45H1341.96C1346.36 2472.35 1350.06 2468.25 1349.06 2463.85Z" fill="white"/>
<rect x="-4" y="496" width="115.966" height="115.966" rx="7" transform="rotate(45 -4 496)" fill="#D9D9D9"/>
</g>
<defs>
<clipPath id="clip0_34_4969">
<rect width="1440" height="2560" fill="white"/>
</clipPath>
</defs>
</svg>
