<svg width="1440" height="2560" viewBox="0 0 1440 2560" fill="none" xmlns="http://www.w3.org/2000/svg">
<g clip-path="url(#clip0_122_213)">
<rect width="1440" height="2560" fill="white"/>
<g opacity="0.15">
<path d="M-2.42748 1877.28L-684.68 2559.35L-2.42748 3241.42L679.825 2559.35L-2.42748 1877.28Z" fill="#3D3D3D"/>
<path d="M7.22227 1898.21L-1.08322 1889.9L-10.7735 1898.21L-16.3107 1892.67L-8.00474 1882.98L-23.2322 1869.14L-1.08322 1847L19.6813 1869.14L4.45391 1882.98L12.7598 1892.67L7.22227 1898.21Z" fill="#A3A3A3"/>
<path d="M646.771 2555.58L634.312 2543.12L664.767 2512.68L677.226 2525.13L646.771 2555.58ZM621.854 2530.67L609.395 2518.21L639.849 2487.77L652.308 2500.22L621.854 2530.67ZM596.936 2505.76L584.477 2493.3L614.932 2462.85L627.391 2475.31L596.936 2505.76ZM570.634 2479.46L558.176 2467.01L588.63 2436.56L601.089 2449.02L570.634 2479.46ZM545.717 2454.55L533.258 2442.1L563.713 2411.65L576.171 2424.1L545.717 2454.55ZM520.799 2429.64L508.34 2417.18L538.795 2386.74L551.254 2399.19L520.799 2429.64ZM495.882 2404.73L483.423 2392.27L513.878 2361.83L526.336 2374.28L495.882 2404.73ZM469.58 2378.43L457.121 2365.98L487.576 2335.53L500.035 2347.99L469.58 2378.43ZM444.662 2353.52L432.204 2341.07L462.659 2310.62L475.117 2323.08L444.662 2353.52ZM419.745 2328.61L407.286 2316.16L437.741 2285.71L450.2 2298.17L419.745 2328.61ZM394.827 2303.7L382.369 2291.25L412.824 2260.8L425.282 2273.26L394.827 2303.7ZM368.526 2277.41L356.067 2264.95L386.522 2234.51L398.98 2246.96L368.526 2277.41ZM343.608 2252.5L331.15 2240.04L361.604 2209.59L374.063 2222.05L343.608 2252.5ZM318.691 2227.59L306.232 2215.13L336.687 2184.68L349.145 2197.14L318.691 2227.59ZM293.773 2202.67L281.315 2190.22L311.769 2159.77L324.228 2172.23L293.773 2202.67ZM267.472 2176.38L255.013 2163.92L285.467 2133.48L297.926 2145.93L267.472 2176.38ZM242.554 2151.47L230.095 2139.01L260.55 2108.57L273.009 2121.02L242.554 2151.47ZM217.637 2126.56L205.178 2114.1L235.632 2083.66L248.091 2096.11L217.637 2126.56ZM191.335 2100.26L178.876 2087.81L209.331 2057.36L221.789 2069.82L191.335 2100.26ZM166.417 2075.35L153.958 2062.9L184.413 2032.45L196.872 2044.91L166.417 2075.35ZM141.5 2050.44L129.041 2037.99L159.496 2007.54L171.955 2020L141.5 2050.44ZM116.582 2025.53L104.123 2013.08L134.578 1982.63L147.037 1995.08L116.582 2025.53ZM90.2803 1999.24L77.8217 1986.78L108.277 1956.33L120.735 1968.79L90.2803 1999.24ZM65.363 1974.33L52.9044 1961.87L83.3588 1931.42L95.8179 1943.88L65.363 1974.33ZM40.4457 1949.41L27.9866 1936.96L58.4415 1906.51L70.9002 1918.97L40.4457 1949.41ZM15.528 1924.5L3.06934 1912.05L33.5242 1881.6L45.9829 1894.06L15.528 1924.5Z" fill="#A3A3A3"/>
<path d="M689.685 2580.49L674.457 2566.65L666.152 2574.95L659.23 2568.03L668.92 2559.73L659.23 2551.42L666.152 2544.5L674.457 2554.19L689.685 2538.97L710.449 2559.73L689.685 2580.49Z" fill="#A3A3A3"/>
<path d="M-10.7741 2097.49L-17.6957 2090.57L-8.00536 2080.89L-24.6172 2064.28L-1.08384 2040.75L21.0647 2064.28L5.83768 2080.89L14.1432 2090.57L7.22165 2097.49L-1.08384 2087.81L-10.7741 2097.49Z" fill="#A3A3A3"/>
<path d="M447.431 2555.57L433.588 2541.73L466.811 2508.52L480.655 2522.36L447.431 2555.57ZM421.13 2529.28L407.287 2515.44L440.51 2482.23L454.353 2496.06L421.13 2529.28ZM393.443 2501.6L379.6 2487.76L412.824 2454.55L426.667 2468.39L393.443 2501.6ZM367.141 2475.31L353.298 2461.47L386.522 2428.25L400.365 2442.09L367.141 2475.31ZM339.455 2447.63L325.612 2433.79L358.836 2400.57L372.679 2414.41L339.455 2447.63ZM313.154 2421.33L299.311 2407.49L332.534 2374.28L346.377 2388.12L313.154 2421.33ZM285.467 2393.65L271.624 2379.81L304.848 2346.6L318.691 2360.44L285.467 2393.65ZM259.166 2367.36L245.323 2353.52L278.546 2320.3L292.389 2334.14L259.166 2367.36ZM231.48 2339.68L217.637 2325.84L250.86 2292.63L264.703 2306.47L231.48 2339.68ZM205.178 2313.39L191.335 2299.55L224.558 2266.33L238.401 2280.17L205.178 2313.39ZM177.492 2285.71L163.649 2271.87L196.872 2238.65L210.715 2252.49L177.492 2285.71ZM151.19 2259.41L137.347 2245.57L170.57 2212.36L184.413 2226.2L151.19 2259.41ZM123.504 2231.73L109.661 2217.89L142.884 2184.68L156.727 2198.52L123.504 2231.73ZM97.202 2205.44L83.3589 2191.6L116.583 2158.38L130.426 2172.22L97.202 2205.44ZM69.5159 2177.76L55.6729 2163.92L88.8965 2130.71L102.74 2144.54L69.5159 2177.76ZM43.2142 2151.46L29.3711 2137.63L62.5944 2104.41L76.4374 2118.25L43.2142 2151.46ZM15.5281 2123.79L1.68506 2109.95L34.9083 2076.73L48.7513 2090.57L15.5281 2123.79Z" fill="#A3A3A3"/>
<path d="M494.497 2583.26L477.885 2566.65L468.195 2576.34L461.273 2569.42L470.963 2559.73L461.273 2550.04L468.195 2543.12L477.885 2552.81L494.497 2536.2L516.646 2559.73L494.497 2583.26Z" fill="#A3A3A3"/>
<path d="M-1.82325 2865.73L304.554 2559.44L-1.82325 2253.14L-308.201 2559.44L-1.82325 2865.73Z" fill="#A3A3A3"/>
</g>
<g opacity="0.15">
<path d="M1421.57 -682.72L739.32 -0.649414L1421.57 681.421L2103.83 -0.649414L1421.57 -682.72Z" fill="#3D3D3D"/>
<path d="M1422.92 712.448L1400.77 691.689L1416 676.466L1407.69 666.778L1413.23 661.243L1422.92 669.546L1431.22 661.243L1436.76 666.778L1428.45 676.466L1443.68 691.689L1422.92 712.448Z" fill="#A3A3A3"/>
<path d="M1388.31 677.857L1375.85 665.402L1406.3 634.955L1418.76 647.411L1388.31 677.857ZM1363.39 652.946L1350.93 640.491L1381.39 610.044L1393.85 622.499L1363.39 652.946ZM1338.47 628.035L1326.02 615.58L1356.47 585.134L1368.93 597.589L1338.47 628.035ZM1312.17 603.125L1299.71 590.669L1330.17 560.222L1342.63 572.678L1312.17 603.125ZM1287.25 576.83L1274.8 564.375L1305.25 533.928L1317.71 546.383L1287.25 576.83ZM1262.34 551.919L1249.88 539.463L1280.33 509.017L1292.79 521.472L1262.34 551.919ZM1237.42 527.008L1224.96 514.553L1255.42 484.106L1267.87 496.562L1237.42 527.008ZM1211.12 502.098L1198.66 489.642L1229.11 459.195L1241.57 471.651L1211.12 502.098ZM1186.2 475.803L1173.74 463.347L1204.2 432.901L1216.65 445.356L1186.2 475.803ZM1161.28 450.892L1148.82 438.436L1179.28 407.989L1191.74 420.445L1161.28 450.892ZM1134.98 425.981L1122.52 413.525L1152.98 383.079L1165.44 395.534L1134.98 425.981ZM1110.06 399.686L1097.6 387.23L1128.06 356.784L1140.52 369.239L1110.06 399.686ZM1085.15 374.775L1072.69 362.32L1103.14 331.873L1115.6 344.329L1085.15 374.775ZM1060.23 349.865L1047.77 337.409L1078.22 306.962L1090.68 319.418L1060.23 349.865ZM1033.93 324.953L1021.47 312.498L1051.92 282.052L1064.38 294.507L1033.93 324.953ZM1009.01 298.659L996.55 286.203L1027.01 255.756L1039.46 268.212L1009.01 298.659ZM984.092 273.748L971.633 261.293L1002.09 230.846L1014.55 243.302L984.092 273.748ZM959.174 248.837L946.715 236.382L977.17 205.935L989.629 218.391L959.174 248.837ZM932.872 223.926L920.414 211.471L950.868 181.024L963.327 193.479L932.872 223.926ZM907.955 197.632L895.496 185.176L925.951 154.729L938.41 167.185L907.955 197.632ZM883.038 172.72L870.579 160.265L901.033 129.819L913.492 142.274L883.038 172.72ZM856.735 147.81L844.277 135.355L874.732 104.908L887.19 117.363L856.735 147.81ZM831.818 122.899L819.36 110.443L849.814 79.9973L862.273 92.4522L831.818 122.899ZM806.901 96.6039L794.442 84.1489L824.897 53.7022L837.355 66.158L806.901 96.6039ZM781.983 71.6932L769.524 59.2383L799.979 28.7915L812.438 41.2464L781.983 71.6932ZM755.681 46.7825L743.223 34.3268L773.677 3.88086L786.136 16.3358L755.681 46.7825Z" fill="#A3A3A3"/>
<path d="M730.765 20.4868L710 -0.272217L730.765 -21.0312L745.992 -5.80745L754.297 -15.4952L761.219 -8.57549L751.529 -0.272217L761.219 8.0319L754.297 14.9516L745.992 6.64746L730.765 20.4868Z" fill="#A3A3A3"/>
<path d="M1456.14 677.857L1425.69 647.411L1438.14 634.955L1468.6 665.402L1456.14 677.857ZM1481.06 652.946L1450.6 622.499L1463.06 610.044L1493.52 640.491L1481.06 652.946ZM1507.36 628.035L1476.9 597.589L1489.36 585.134L1519.82 615.58L1507.36 628.035ZM1532.28 603.125L1501.82 572.678L1514.28 560.222L1544.74 590.669L1532.28 603.125ZM1557.19 576.83L1526.74 546.383L1539.2 533.928L1569.65 564.375L1557.19 576.83ZM1582.11 551.919L1551.66 521.472L1564.12 509.017L1594.57 539.463L1582.11 551.919ZM1608.41 527.008L1577.96 496.562L1590.42 484.106L1620.87 514.553L1608.41 527.008ZM1633.33 502.098L1602.88 471.651L1615.33 459.195L1645.79 489.642L1633.33 502.098ZM1658.25 475.803L1627.79 445.356L1640.25 432.901L1670.71 463.347L1658.25 475.803ZM1683.17 450.892L1652.71 420.445L1665.17 407.989L1695.62 438.436L1683.17 450.892ZM1709.47 425.981L1679.01 395.534L1691.47 383.079L1721.93 413.525L1709.47 425.981ZM1734.39 399.686L1703.93 369.239L1716.39 356.784L1746.84 387.23L1734.39 399.686ZM1759.3 374.775L1728.85 344.329L1741.31 331.873L1771.76 362.32L1759.3 374.775ZM1785.6 349.865L1755.15 319.418L1767.61 306.962L1798.06 337.409L1785.6 349.865ZM1810.52 324.953L1780.07 294.507L1792.53 282.052L1822.98 312.498L1810.52 324.953ZM1835.44 298.659L1804.98 268.212L1817.44 255.756L1847.9 286.203L1835.44 298.659ZM1860.36 273.748L1829.9 243.302L1842.36 230.846L1872.82 261.293L1860.36 273.748ZM1886.66 248.837L1856.2 218.391L1868.66 205.935L1899.12 236.382L1886.66 248.837ZM1911.58 223.926L1881.12 193.479L1893.58 181.024L1924.03 211.471L1911.58 223.926ZM1936.49 197.632L1906.04 167.185L1918.5 154.729L1948.95 185.176L1936.49 197.632ZM1961.41 172.72L1930.96 142.274L1943.41 129.819L1973.87 160.265L1961.41 172.72ZM1987.71 147.81L1957.26 117.363L1969.72 104.908L2000.17 135.355L1987.71 147.81ZM2012.63 122.899L1982.18 92.4522L1994.63 79.9973L2025.09 110.443L2012.63 122.899ZM2037.55 96.6039L2007.09 66.158L2019.55 53.7022L2050.01 84.1489L2037.55 96.6039ZM2063.85 71.6932L2033.39 41.2464L2045.85 28.7915L2076.31 59.2383L2063.85 71.6932ZM2088.77 46.7825L2058.31 16.3358L2070.77 3.88086L2101.23 34.3268L2088.77 46.7825Z" fill="#A3A3A3"/>
<path d="M1422.92 518.704L1399.38 495.178L1415.99 478.57L1406.3 468.883L1413.23 463.347L1422.92 471.651L1431.22 463.347L1438.14 468.883L1429.84 478.57L1445.06 495.178L1422.92 518.704Z" fill="#A3A3A3"/>
<path d="M1385.54 481.338L1371.7 467.499L1404.92 434.284L1418.76 448.124L1385.54 481.338ZM1359.24 455.043L1345.4 441.204L1378.62 407.989L1392.46 421.828L1359.24 455.043ZM1331.55 427.365L1317.71 413.525L1350.93 380.31L1364.78 394.15L1331.55 427.365ZM1305.25 401.069L1291.41 387.23L1324.63 354.016L1338.47 367.855L1305.25 401.069ZM1277.56 373.391L1263.72 359.551L1296.94 326.337L1310.79 340.177L1277.56 373.391ZM1251.26 347.096L1237.42 333.257L1270.64 300.042L1284.49 313.882L1251.26 347.096ZM1223.58 319.418L1209.73 305.578L1242.96 272.364L1256.8 286.203L1223.58 319.418ZM1197.27 293.123L1183.43 279.283L1216.65 246.069L1230.5 259.909L1197.27 293.123ZM1169.59 265.444L1155.75 251.605L1188.97 218.391L1202.81 232.23L1169.59 265.444ZM1143.29 239.15L1129.44 225.31L1162.67 192.095L1176.51 205.935L1143.29 239.15ZM1115.6 211.471L1101.76 197.632L1134.98 164.417L1148.82 178.256L1115.6 211.471ZM1089.3 185.176L1075.46 171.336L1108.68 138.122L1122.52 151.961L1089.3 185.176ZM1061.61 157.497L1047.77 143.658L1080.99 110.443L1094.84 124.282L1061.61 157.497ZM1035.31 131.202L1021.47 117.363L1054.69 84.1486L1068.53 97.988L1035.31 131.202ZM1007.62 103.523L993.782 89.6839L1027.01 56.4699L1040.85 70.3093L1007.62 103.523ZM981.323 77.229L967.48 63.3896L1000.7 30.1748L1014.55 44.0142L981.323 77.229ZM953.637 49.5502L939.794 35.7109L973.017 2.49609L986.86 16.3355L953.637 49.5502Z" fill="#A3A3A3"/>
<path d="M927.335 23.2574L903.802 -0.269672L927.335 -23.7959L942.563 -7.18935L952.253 -16.8762L959.175 -9.95654L949.484 -0.269672L959.175 9.41805L952.253 16.3377L942.563 6.65L927.335 23.2574Z" fill="#A3A3A3"/>
<path d="M1458.91 481.338L1425.69 448.124L1439.53 434.284L1472.75 467.499L1458.91 481.338ZM1486.59 455.043L1453.37 421.828L1467.21 407.989L1500.44 441.204L1486.59 455.043ZM1512.9 427.365L1479.67 394.15L1493.52 380.31L1526.74 413.525L1512.9 427.365ZM1540.58 401.069L1507.36 367.855L1521.2 354.016L1554.43 387.23L1540.58 401.069ZM1566.88 373.391L1533.66 340.177L1547.5 326.337L1580.73 359.551L1566.88 373.391ZM1594.57 347.096L1561.35 313.882L1575.19 300.042L1608.41 333.257L1594.57 347.096ZM1620.87 319.418L1587.65 286.203L1601.49 272.364L1634.72 305.578L1620.87 319.418ZM1648.56 293.123L1615.33 259.909L1629.18 246.069L1662.4 279.283L1648.56 293.123ZM1674.86 265.444L1641.64 232.23L1655.48 218.391L1688.7 251.605L1674.86 265.444ZM1702.55 239.15L1669.32 205.935L1683.17 192.095L1716.39 225.31L1702.55 239.15ZM1728.85 211.471L1695.62 178.256L1709.47 164.417L1742.69 197.632L1728.85 211.471ZM1756.53 185.176L1723.31 151.961L1737.15 138.122L1770.38 171.336L1756.53 185.176ZM1782.84 157.497L1749.61 124.282L1763.46 110.443L1796.68 143.658L1782.84 157.497ZM1810.52 131.202L1777.3 97.988L1791.14 84.1486L1824.37 117.363L1810.52 131.202ZM1836.82 103.523L1803.6 70.3093L1817.44 56.4699L1850.67 89.6839L1836.82 103.523ZM1864.51 77.229L1831.29 44.0142L1845.13 30.1748L1878.35 63.3896L1864.51 77.229ZM1890.81 49.5502L1857.59 16.3355L1871.43 2.49609L1904.65 35.7109L1890.81 49.5502Z" fill="#A3A3A3"/>
<path d="M1422.18 305.733L1728.55 -0.5625L1422.18 -306.858L1115.8 -0.5625L1422.18 305.733Z" fill="#A3A3A3"/>
</g>
</g>
<defs>
<clipPath id="clip0_122_213">
<rect width="1440" height="2560" fill="white"/>
</clipPath>
</defs>
</svg>
