<svg width="132" height="132" viewBox="0 0 132 132" fill="none" xmlns="http://www.w3.org/2000/svg">
<circle cx="66" cy="66" r="66" fill="#3D3D3D"/>
<path d="M108 57.2079C108 55.411 107.716 53.8033 107.243 52.2902C107.243 52.0065 107.243 52.0065 106.96 51.7228L99.8669 34.1327C98.5429 30.4445 95.1384 28.1748 90.9773 28.1748H41.4225C37.2615 28.1748 34.1406 30.2553 32.8167 33.9436L25.251 51.9119C25.251 51.9119 25.251 52.1956 25.251 52.4793C24.6836 53.9925 24.3999 55.8839 24.3999 57.6807C24.3999 62.4092 26.1967 66.5703 29.6013 69.6911V96.0762C29.6013 100.237 33.0058 103.926 37.4506 103.926H94.0981C98.2592 103.926 101.947 100.521 101.947 96.0762V70.7314C105.636 66.854 108 62.1255 108 57.2079ZM94.0981 97.1165H37.4506C36.4103 97.1165 35.8429 96.3599 35.8429 95.5088V72.8119C37.4506 73.3794 39.2474 73.5685 41.328 73.5685C46.2456 73.5685 50.6904 71.488 53.9058 67.6106C57.0266 71.2988 61.4714 73.3794 66.4836 73.3794C71.4959 73.3794 75.8461 71.2988 79.0615 67.4214C82.1823 71.1097 86.9108 73.3794 91.8285 73.3794C93.4362 73.3794 94.6656 73.0956 95.9895 72.8119V95.3196C95.7058 96.3599 94.9493 97.1165 94.0981 97.1165ZM96.4624 66.2866C95.1384 67.0432 93.3416 67.3269 91.5447 67.3269C87.8565 67.3269 84.452 65.53 82.6551 62.4092C82.3714 62.1255 82.3714 61.6527 81.8986 61.0852C81.3312 60.5178 80.5746 59.7613 79.0615 59.7613C77.7375 59.7613 76.6972 60.3287 76.2244 61.0852C75.657 61.6527 75.657 61.8418 75.4678 62.4092C73.671 65.53 70.2665 67.3269 66.5782 67.3269C62.89 67.3269 59.4855 65.53 57.6886 62.4092C57.4049 62.1255 57.4049 61.6527 56.9321 61.3689C55.6081 59.7613 52.2035 59.7613 51.1633 61.3689C50.5958 61.9364 50.4067 62.4092 50.4067 62.6929C48.6099 65.8137 45.2053 67.6106 41.5171 67.6106C39.7203 67.6106 37.8289 67.3269 36.5995 66.5703C33.1949 64.7735 31.1144 61.0852 31.1144 57.2079C31.1144 56.1676 31.3981 54.8436 31.6818 53.8033V53.5196L39.2474 35.7404C39.5311 35.173 39.8148 33.9436 42.0845 33.9436H91.5447C92.585 33.9436 94.1927 34.2273 94.6656 35.7404L101.758 53.2359V53.5196C102.042 54.5599 102.326 55.8839 102.326 56.9241C101.947 60.8015 99.8669 64.4898 96.4624 66.2866Z" fill="white"/>
</svg>
