<svg width="152" height="114" viewBox="0 0 152 114" fill="none" xmlns="http://www.w3.org/2000/svg">
<path d="M10.6519 20.28C11.1953 20.7447 11.8867 21 12.6017 21H139.398C140.113 21 140.805 20.7447 141.348 20.28L150.287 12.6361C151.703 11.425 151.684 9.2292 150.247 8.04273L141.338 0.686644C140.8 0.242786 140.125 0 139.428 0H12.5723C11.8752 0 11.1998 0.242786 10.6622 0.686642L1.75299 8.04273C0.315994 9.2292 0.297028 11.425 1.71329 12.6361L10.6519 20.28Z" fill="white"/>
<path d="M10.6519 66.9465C11.1953 67.4112 11.8867 67.6665 12.6017 67.6665H139.398C140.113 67.6665 140.805 67.4112 141.348 66.9465L150.287 59.3026C151.703 58.0915 151.684 55.8957 150.247 54.7092L141.338 47.3531C140.8 46.9093 140.125 46.6665 139.428 46.6665H12.5723C11.8752 46.6665 11.1998 46.9093 10.6622 47.3531L1.75299 54.7092C0.316003 55.8957 0.29703 58.0915 1.7133 59.3026L10.6519 66.9465Z" fill="white"/>
<path d="M10.6519 112.447C11.1953 112.911 11.8867 113.167 12.6017 113.167H139.398C140.113 113.167 140.805 112.911 141.348 112.447L150.287 104.803C151.703 103.591 151.684 101.396 150.247 100.209L141.338 92.8531C140.8 92.4093 140.125 92.1665 139.428 92.1665H12.5723C11.8752 92.1665 11.1998 92.4093 10.6622 92.8531L1.75299 100.209C0.315994 101.396 0.297028 103.591 1.71329 104.803L10.6519 112.447Z" fill="white"/>
</svg>
