<svg width="179" height="75" viewBox="0 0 179 75" fill="none" xmlns="http://www.w3.org/2000/svg">
<path d="M93.48 61.78C92.52 61.78 91.62 61.56 90.78 61.12C89.94 60.68 89.26 60.08 88.74 59.32L91.56 57.4C91.76 57.72 92.04 57.96 92.4 58.12C92.76 58.28 93.1 58.36 93.42 58.36C93.94 58.36 94.4 58.14 94.8 57.7C95.2 57.26 95.4 56.76 95.4 56.2V19.96H97.68L104.34 27.46L123.54 51.94L124.38 53.26L124.2 20.02H127.92V61H126.66L99.6 27.22L98.88 25.96L99.12 56.26C99.12 57.86 98.56 59.18 97.44 60.22C96.32 61.26 95 61.78 93.48 61.78ZM151.275 61.6C148.435 61.6 145.895 60.94 143.655 59.62C141.455 58.3 139.735 56.46 138.495 54.1C137.255 51.74 136.635 49.06 136.635 46.06C136.635 43.06 137.255 40.38 138.495 38.02C139.775 35.62 141.515 33.76 143.715 32.44C145.955 31.08 148.495 30.4 151.335 30.4C154.135 30.4 156.635 31.08 158.835 32.44C161.075 33.76 162.815 35.6 164.055 37.96C165.335 40.32 165.975 43 165.975 46C165.975 49 165.335 51.68 164.055 54.04C162.815 56.4 161.075 58.26 158.835 59.62C156.635 60.94 154.115 61.6 151.275 61.6ZM151.335 58.36C154.655 58.36 157.315 57.22 159.315 54.94C161.355 52.66 162.375 49.68 162.375 46C162.375 43.56 161.915 41.42 160.995 39.58C160.075 37.7 158.775 36.24 157.095 35.2C155.415 34.16 153.495 33.64 151.335 33.64C149.135 33.64 147.195 34.16 145.515 35.2C143.835 36.24 142.535 37.72 141.615 39.64C140.695 41.52 140.235 43.66 140.235 46.06C140.235 48.46 140.695 50.6 141.615 52.48C142.535 54.32 143.835 55.76 145.515 56.8C147.195 57.84 149.135 58.36 151.335 58.36Z" fill="white"/>
<rect x="37.5" y="-1.24264" width="54.7903" height="54.7903" rx="12" transform="rotate(45 37.5 -1.24264)" stroke="white" stroke-width="6"/>
<path d="M26 26L49 49" stroke="white" stroke-width="6"/>
<path d="M49 26L26 49" stroke="white" stroke-width="6"/>
</svg>
